<?xml version="1.0" encoding="iso-8859-1"?>
<!-- Uploaded to: SVG Repo, www.svgrepo.com, Generator: SVG Repo Mixer Tools -->
<svg height="800px" width="800px" version="1.1" id="Layer_1" xmlns="http://www.w3.org/2000/svg" xmlns:xlink="http://www.w3.org/1999/xlink" 
	 viewBox="0 0 512.213 512.213" xml:space="preserve">
<g transform="translate(1 1)">
	<path style="fill:#E2E3E5;" d="M278.815,451.48l-123.733-179.2c-46.08-61.44-40.107-164.693,14.507-219.307l0,0
		c60.587-60.587,158.72-60.587,219.307,0l0,0c54.613,54.613,60.587,157.013,14.507,219.307L278.815,451.48z"/>
	<path style="fill:#F0F0F0;" d="M392.308,323.48h-43.52l-93.013,128l-88.747-128H91.935L7.455,500.973c0,0.853,0,1.707,0.853,1.707
		h467.627c0.853,0,0.853-0.853,0.853-1.707L392.308,323.48z"/>
	<path style="fill:#E0E0E0;" d="M416.202,323.48h-24.747l84.48,177.493c0,0.853,0,1.707-0.853,1.707h24.747
		c0.853,0,0.853-0.853,0.853-1.707L416.202,323.48z"/>
	<path style="fill:#FFFFFF;" d="M93.642,323.48h24.747l-84.48,177.493c0,0.853,0,1.707,0.853,1.707h-25.6
		c-0.853,0-0.853-0.853-0.853-1.707L93.642,323.48z"/>
	<path style="fill:#CCCCCC;" d="M256.628,451.48l-124.587-179.2c-46.08-61.44-40.107-164.693,14.507-219.307l0,0
		c60.587-60.587,158.72-60.587,219.307,0l0,0c54.613,54.613,60.587,157.013,14.507,219.307L256.628,451.48z"/>
	<path style="fill:#E2E3E5;" d="M254.922,451.48l-116.907-179.2c-46.08-61.44-40.107-164.693,14.507-219.307
		c60.587-60.587,124.587-60.587,185.173,0l0,0c54.613,54.613,60.587,157.013,14.507,219.307L254.922,451.48z"/>
	<path style="fill:#E0E0E0;" d="M309.535,161.347c0,28.16-23.04,51.2-51.2,51.2s-51.2-23.04-51.2-51.2s23.04-51.2,51.2-51.2
		S309.535,133.187,309.535,161.347"/>
	<path style="fill:#F0F0F0;" d="M280.522,161.347c0,28.16-17.067,51.2-38.4,51.2s-38.4-23.04-38.4-51.2s17.067-51.2,38.4-51.2
		S280.522,133.187,280.522,161.347"/>
	<path style="fill:#FFFFFF;" d="M146.548,52.973L146.548,52.973C178.975,21.4,220.788,6.04,262.602,7.747
		c-29.013,1.707-58.88,17.067-87.04,45.227l0,0c-54.613,54.613-60.587,157.867-14.507,219.307l96.427,178.347l-0.853,0.853
		l-124.587-179.2C85.962,210.84,91.935,107.587,146.548,52.973"/>
	<g>
		<path style="fill:#B6B6B6;" d="M258.335,221.08c-33.28,0-59.733-26.453-59.733-59.733s26.453-59.733,59.733-59.733
			s59.733,26.453,59.733,59.733S290.762,221.08,258.335,221.08z M258.335,118.68c-23.893,0-42.667,18.773-42.667,42.667
			s18.773,42.667,42.667,42.667s42.667-18.773,42.667-42.667S281.375,118.68,258.335,118.68z"/>
		<path style="fill:#B6B6B6;" d="M256.628,460.013c-2.56,0-5.12-1.707-6.827-3.413L126.068,277.4
			c-48.64-64.853-41.813-172.373,15.36-230.4c64-64,167.253-64,231.253,0c57.173,57.173,64,164.693,15.36,230.4L263.455,456.6
			C261.748,458.307,259.188,460.013,256.628,460.013z M256.628,16.28c-37.547,0-75.093,14.507-104.107,42.667
			c-51.2,51.2-58.027,148.48-13.653,208.213l116.907,168.96l116.907-168.96c44.373-59.733,38.4-156.16-13.653-208.213
			C331.722,30.787,294.175,16.28,256.628,16.28z"/>
		<path style="fill:#B6B6B6;" d="M500.682,511.213H9.162c-3.413,0-5.973-1.707-7.68-4.267s-1.707-5.973-0.853-9.387l84.48-177.493
			c1.707-3.413,4.267-5.12,7.68-5.12h75.093c2.56,0,5.12,1.707,6.827,3.413l81.92,117.76l81.92-117.76
			c1.707-2.56,4.267-3.413,6.827-3.413h71.68c3.413,0,5.973,1.707,7.68,5.12l84.48,177.493c1.707,2.56,0.853,5.973-0.853,9.387
			C507.508,509.507,504.095,511.213,500.682,511.213z M493.855,505.24L493.855,505.24L493.855,505.24z M15.988,505.24L15.988,505.24
			L15.988,505.24z M21.108,494.147h467.627l-76.8-162.133h-62.293L263.455,456.6c-3.413,4.267-11.093,4.267-13.653,0
			l-86.187-124.587H98.762L21.108,494.147z"/>
	</g>
</g>
</svg>