<svg id="svg" version="1.1" xmlns="http://www.w3.org/2000/svg" xmlns:xlink="http://www.w3.org/1999/xlink" width="400" height="373.91304347826093" viewBox="0, 0, 400,373.91304347826093"><g id="svgg"><path id="path0" d="M92.353 53.803 C 49.631 61.535,31.884 71.676,31.884 88.358 C 31.884 90.573,25.036 96.055,16.667 100.541 L 1.449 108.696 0.695 241.329 L -0.059 373.963 158.666 373.213 L 317.391 372.464 319.270 327.536 C 321.393 276.786,327.207 238.587,339.442 195.014 C 344.053 178.592,347.826 162.728,347.826 159.761 C 347.826 149.227,309.020 116.121,277.536 99.795 C 269.964 95.869,263.768 90.783,263.768 88.493 C 263.768 58.517,170.545 39.651,92.353 53.803 M182.685 66.731 C 225.657 71.914,246.377 79.561,246.377 90.238 C 246.377 104.078,211.180 299.544,207.953 303.623 C 205.834 306.303,190.174 307.246,147.826 307.246 C 105.478 307.246,89.818 306.303,87.699 303.623 C 84.472 299.544,49.275 104.078,49.275 90.238 C 49.275 72.149,121.743 59.380,182.685 66.731 M361.182 191.871 C 349.229 210.113,333.086 328.214,337.982 361.594 L 339.789 373.913 369.894 373.913 L 400.000 373.913 400.000 320.754 C 400.000 242.192,377.392 167.130,361.182 191.871 " stroke="none" fill="#000000" fill-rule="evenodd"></path></g></svg>