<svg id="svg" version="1.1" xmlns="http://www.w3.org/2000/svg" xmlns:xlink="http://www.w3.org/1999/xlink" width="400" height="400" viewBox="0, 0, 400,400"><g id="svgg"><path id="path0" d="M198.900 0.265 C 198.625 0.376,198.400 0.722,198.400 1.033 C 198.400 1.345,198.240 1.600,198.045 1.600 C 197.849 1.600,197.571 2.230,197.426 3.000 C 197.282 3.770,196.992 4.400,196.782 4.400 C 196.572 4.400,196.400 4.670,196.400 5.000 C 196.400 5.330,196.240 5.600,196.045 5.600 C 195.849 5.600,195.571 6.230,195.426 7.000 C 195.282 7.770,194.992 8.400,194.782 8.400 C 194.572 8.400,194.400 8.670,194.400 9.000 C 194.400 9.330,194.240 9.600,194.045 9.600 C 193.849 9.600,193.571 10.230,193.426 11.000 C 193.282 11.770,193.034 12.400,192.876 12.400 C 192.568 12.400,191.200 15.341,191.200 16.003 C 191.200 16.221,191.062 16.400,190.894 16.400 C 190.573 16.400,189.200 19.320,189.200 20.003 C 189.200 20.221,189.054 20.400,188.875 20.400 C 188.696 20.400,188.291 21.070,187.975 21.889 C 187.659 22.707,186.905 24.338,186.300 25.513 C 185.695 26.687,185.200 27.834,185.200 28.062 C 185.200 28.290,184.839 28.984,184.397 29.605 C 183.955 30.225,183.482 31.288,183.347 31.966 C 183.211 32.645,182.942 33.200,182.750 33.200 C 182.558 33.200,182.400 33.470,182.400 33.800 C 182.400 34.130,182.228 34.400,182.018 34.400 C 181.808 34.400,181.518 35.030,181.374 35.800 C 181.229 36.570,180.951 37.200,180.755 37.200 C 180.560 37.200,180.400 37.470,180.400 37.800 C 180.400 38.130,180.228 38.400,180.018 38.400 C 179.808 38.400,179.518 39.030,179.374 39.800 C 179.229 40.570,178.951 41.200,178.755 41.200 C 178.560 41.200,178.400 41.470,178.400 41.800 C 178.400 42.130,178.228 42.400,178.018 42.400 C 177.808 42.400,177.518 43.030,177.374 43.800 C 177.229 44.570,176.951 45.200,176.755 45.200 C 176.560 45.200,176.400 45.470,176.400 45.800 C 176.400 46.130,176.228 46.400,176.018 46.400 C 175.808 46.400,175.518 47.030,175.374 47.800 C 175.229 48.570,174.951 49.200,174.755 49.200 C 174.560 49.200,174.400 49.470,174.400 49.800 C 174.400 50.130,174.228 50.400,174.018 50.400 C 173.808 50.400,173.518 51.030,173.374 51.800 C 173.229 52.570,172.951 53.200,172.755 53.200 C 172.560 53.200,172.400 53.470,172.400 53.800 C 172.400 54.130,172.228 54.400,172.018 54.400 C 171.808 54.400,171.518 55.030,171.374 55.800 C 171.229 56.570,170.951 57.200,170.755 57.200 C 170.560 57.200,170.400 57.470,170.400 57.800 C 170.400 58.130,170.228 58.400,170.018 58.400 C 169.808 58.400,169.518 59.030,169.374 59.800 C 169.229 60.570,168.951 61.200,168.755 61.200 C 168.560 61.200,168.400 61.470,168.400 61.800 C 168.400 62.130,168.228 62.400,168.018 62.400 C 167.808 62.400,167.518 63.030,167.374 63.800 C 167.229 64.570,166.951 65.200,166.755 65.200 C 166.560 65.200,166.400 65.470,166.400 65.800 C 166.400 66.130,166.228 66.400,166.018 66.400 C 165.808 66.400,165.518 67.030,165.374 67.800 C 165.229 68.570,164.951 69.200,164.755 69.200 C 164.560 69.200,164.400 69.470,164.400 69.800 C 164.400 70.130,164.234 70.400,164.032 70.400 C 163.829 70.400,163.537 70.985,163.382 71.700 C 163.226 72.415,162.978 73.090,162.829 73.200 C 162.456 73.476,161.200 76.221,161.200 76.760 C 161.200 77.002,161.020 77.200,160.800 77.200 C 160.580 77.200,160.400 77.377,160.400 77.592 C 160.400 77.808,159.680 79.500,158.800 81.352 C 157.920 83.204,157.200 84.918,157.200 85.160 C 157.200 85.402,157.020 85.600,156.800 85.600 C 156.580 85.600,156.400 85.960,156.400 86.400 C 156.400 86.840,156.234 87.200,156.032 87.200 C 155.829 87.200,155.545 87.740,155.400 88.400 C 155.255 89.060,154.971 89.600,154.768 89.600 C 154.566 89.600,154.400 89.960,154.400 90.400 C 154.400 90.840,154.234 91.200,154.032 91.200 C 153.829 91.200,153.545 91.740,153.400 92.400 C 153.255 93.060,152.971 93.600,152.768 93.600 C 152.566 93.600,152.400 93.960,152.400 94.400 C 152.400 94.840,152.234 95.200,152.032 95.200 C 151.829 95.200,151.545 95.740,151.400 96.400 C 151.255 97.060,150.971 97.600,150.768 97.600 C 150.566 97.600,150.400 97.960,150.400 98.400 C 150.400 98.840,150.234 99.200,150.032 99.200 C 149.829 99.200,149.545 99.740,149.400 100.400 C 149.255 101.060,148.971 101.600,148.768 101.600 C 148.566 101.600,148.400 101.960,148.400 102.400 C 148.400 102.840,148.234 103.200,148.032 103.200 C 147.829 103.200,147.545 103.740,147.400 104.400 C 147.255 105.060,146.971 105.600,146.768 105.600 C 146.566 105.600,146.400 105.960,146.400 106.400 C 146.400 106.840,146.234 107.200,146.032 107.200 C 145.829 107.200,145.545 107.740,145.400 108.400 C 145.255 109.060,144.971 109.600,144.768 109.600 C 144.566 109.600,144.400 109.960,144.400 110.400 C 144.400 110.840,144.234 111.200,144.032 111.200 C 143.829 111.200,143.545 111.740,143.400 112.400 C 143.255 113.060,142.971 113.600,142.768 113.600 C 142.566 113.600,142.400 113.960,142.400 114.400 C 142.400 114.840,142.234 115.200,142.032 115.200 C 141.829 115.200,141.545 115.740,141.400 116.400 C 141.255 117.060,140.971 117.600,140.768 117.600 C 140.566 117.600,140.400 117.960,140.400 118.400 C 140.400 118.840,140.234 119.200,140.032 119.200 C 139.829 119.200,139.545 119.740,139.400 120.400 C 139.255 121.060,138.971 121.600,138.768 121.600 C 138.566 121.600,138.400 121.960,138.400 122.400 C 138.400 122.840,138.220 123.200,138.000 123.200 C 137.780 123.200,137.600 123.470,137.600 123.800 C 137.600 124.243,137.136 124.400,135.824 124.400 C 134.847 124.400,133.948 124.560,133.827 124.756 C 133.706 124.952,131.624 125.242,129.200 125.400 C 126.776 125.558,124.694 125.848,124.573 126.044 C 124.452 126.240,123.384 126.400,122.200 126.400 C 121.016 126.400,119.949 126.558,119.830 126.752 C 119.710 126.945,117.719 127.233,115.406 127.390 C 113.092 127.548,111.099 127.840,110.976 128.039 C 110.853 128.237,109.773 128.400,108.576 128.400 C 107.379 128.400,106.400 128.558,106.400 128.752 C 106.400 128.946,104.330 129.233,101.800 129.392 C 99.270 129.550,97.200 129.841,97.200 130.039 C 97.200 130.238,96.120 130.400,94.800 130.400 C 93.480 130.400,92.400 130.557,92.400 130.749 C 92.400 130.940,90.421 131.225,88.003 131.382 C 85.584 131.539,83.504 131.832,83.379 132.034 C 83.255 132.235,82.184 132.400,81.000 132.400 C 79.816 132.400,78.745 132.565,78.621 132.766 C 78.496 132.968,76.416 133.261,73.997 133.418 C 71.579 133.575,69.600 133.860,69.600 134.051 C 69.600 134.243,68.610 134.400,67.400 134.400 C 66.190 134.400,65.200 134.558,65.200 134.752 C 65.200 134.946,63.130 135.233,60.599 135.392 C 58.069 135.550,55.898 135.841,55.776 136.040 C 55.653 136.238,54.573 136.400,53.376 136.400 C 52.179 136.400,51.200 136.557,51.200 136.749 C 51.200 136.940,49.221 137.225,46.803 137.382 C 44.384 137.539,42.304 137.832,42.179 138.034 C 42.055 138.235,40.984 138.400,39.800 138.400 C 38.616 138.400,37.545 138.565,37.421 138.766 C 37.296 138.968,35.216 139.261,32.797 139.418 C 30.379 139.575,28.400 139.860,28.400 140.051 C 28.400 140.243,27.320 140.400,26.000 140.400 C 24.680 140.400,23.600 140.562,23.600 140.761 C 23.600 140.959,21.530 141.250,19.000 141.408 C 16.470 141.567,14.400 141.854,14.400 142.048 C 14.400 142.242,13.421 142.400,12.224 142.400 C 11.027 142.400,9.950 142.557,9.832 142.748 C 9.714 142.939,7.785 143.226,5.545 143.384 C -0.458 143.810,-1.522 144.977,1.686 147.614 C 2.614 148.376,8.435 154.043,14.622 160.207 C 20.809 166.370,27.282 172.670,29.006 174.207 C 30.730 175.743,37.025 181.860,42.994 187.800 C 48.964 193.740,54.892 199.500,56.168 200.600 C 57.444 201.700,58.693 202.819,58.944 203.086 C 59.195 203.353,59.616 203.803,59.881 204.086 C 60.145 204.369,60.595 204.816,60.881 205.081 C 61.166 205.345,61.616 205.795,61.881 206.081 C 62.145 206.366,62.595 206.816,62.881 207.081 C 63.166 207.345,63.616 207.795,63.881 208.081 C 64.145 208.366,64.595 208.816,64.881 209.081 C 65.166 209.345,65.616 209.795,65.881 210.081 C 66.145 210.366,66.595 210.816,66.881 211.081 C 67.166 211.345,67.616 211.795,67.881 212.081 C 68.145 212.366,68.595 212.816,68.881 213.081 C 69.166 213.345,69.616 213.795,69.881 214.081 C 70.145 214.366,70.595 214.816,70.881 215.081 C 71.166 215.345,71.616 215.795,71.881 216.081 C 72.145 216.366,72.595 216.816,72.881 217.081 C 73.166 217.345,73.616 217.795,73.881 218.081 C 74.145 218.366,74.595 218.816,74.881 219.081 C 75.166 219.345,75.604 219.795,75.854 220.081 C 76.104 220.366,77.972 222.130,80.005 224.000 C 91.179 234.276,99.200 242.707,99.200 244.176 C 99.200 244.959,99.020 245.600,98.800 245.600 C 98.580 245.600,98.400 246.500,98.400 247.600 C 98.400 248.700,98.241 249.600,98.048 249.600 C 97.854 249.600,97.567 251.310,97.410 253.399 C 97.254 255.489,96.962 257.300,96.763 257.423 C 96.563 257.546,96.400 258.436,96.400 259.400 C 96.400 260.364,96.237 261.254,96.037 261.377 C 95.838 261.500,95.546 263.311,95.390 265.401 C 95.233 267.490,94.946 269.200,94.752 269.200 C 94.559 269.200,94.400 270.100,94.400 271.200 C 94.400 272.300,94.241 273.200,94.048 273.200 C 93.854 273.200,93.567 274.910,93.410 276.999 C 93.254 279.089,92.962 280.900,92.763 281.023 C 92.563 281.146,92.400 281.946,92.400 282.800 C 92.400 283.654,92.237 284.454,92.037 284.577 C 91.838 284.700,91.546 286.511,91.390 288.601 C 91.233 290.690,90.946 292.400,90.752 292.400 C 90.559 292.400,90.400 293.300,90.400 294.400 C 90.400 295.500,90.241 296.400,90.048 296.400 C 89.854 296.400,89.567 298.110,89.410 300.199 C 89.254 302.289,88.962 304.100,88.763 304.223 C 88.563 304.346,88.400 305.236,88.400 306.200 C 88.400 307.164,88.233 308.056,88.030 308.182 C 87.826 308.308,87.533 310.028,87.378 312.005 C 87.223 313.982,86.940 315.600,86.748 315.600 C 86.557 315.600,86.400 316.500,86.400 317.600 C 86.400 318.700,86.241 319.600,86.048 319.600 C 85.854 319.600,85.567 321.310,85.410 323.399 C 85.254 325.489,84.962 327.300,84.763 327.423 C 84.563 327.546,84.400 328.436,84.400 329.400 C 84.400 330.364,84.237 331.254,84.037 331.377 C 83.838 331.500,83.546 333.311,83.390 335.401 C 83.233 337.490,82.946 339.200,82.752 339.200 C 82.559 339.200,82.400 340.100,82.400 341.200 C 82.400 342.300,82.241 343.200,82.048 343.200 C 81.854 343.200,81.567 344.910,81.410 346.999 C 81.254 349.089,80.962 350.900,80.763 351.023 C 80.563 351.146,80.400 351.946,80.400 352.800 C 80.400 353.654,80.237 354.454,80.037 354.577 C 79.838 354.700,79.546 356.511,79.390 358.601 C 79.233 360.690,78.946 362.400,78.752 362.400 C 78.559 362.400,78.400 363.300,78.400 364.400 C 78.400 365.500,78.241 366.400,78.048 366.400 C 77.854 366.400,77.567 368.110,77.410 370.199 C 77.254 372.289,76.962 374.100,76.763 374.223 C 76.563 374.346,76.400 375.236,76.400 376.200 C 76.400 377.164,76.220 378.064,76.000 378.200 C 74.897 378.882,75.587 380.400,77.000 380.400 C 77.770 380.400,78.400 380.220,78.400 380.000 C 78.400 379.780,78.670 379.600,79.000 379.600 C 79.330 379.600,79.600 379.440,79.600 379.243 C 79.600 379.047,80.009 378.784,80.508 378.659 C 81.007 378.534,81.787 378.085,82.241 377.662 C 82.695 377.239,83.637 376.768,84.333 376.615 C 85.030 376.462,85.600 376.171,85.600 375.968 C 85.600 375.766,85.870 375.600,86.200 375.600 C 86.530 375.600,86.800 375.440,86.800 375.245 C 86.800 375.049,87.430 374.771,88.200 374.626 C 88.970 374.482,89.600 374.192,89.600 373.982 C 89.600 373.772,89.870 373.600,90.200 373.600 C 90.530 373.600,90.800 373.420,90.800 373.200 C 90.800 372.980,91.115 372.799,91.500 372.798 C 91.885 372.797,93.010 372.258,94.000 371.600 C 94.990 370.942,96.025 370.403,96.300 370.402 C 96.575 370.401,96.800 370.220,96.800 370.000 C 96.800 369.780,97.160 369.600,97.600 369.600 C 98.040 369.600,98.400 369.434,98.400 369.232 C 98.400 369.029,98.940 368.745,99.600 368.600 C 100.260 368.455,100.800 368.171,100.800 367.968 C 100.800 367.766,101.160 367.600,101.600 367.600 C 102.040 367.600,102.400 367.434,102.400 367.232 C 102.400 367.029,102.940 366.745,103.600 366.600 C 104.260 366.455,104.800 366.211,104.800 366.058 C 104.800 365.905,105.608 365.424,106.596 364.990 C 107.584 364.555,108.394 364.065,108.396 363.900 C 108.398 363.735,108.670 363.600,109.000 363.600 C 109.330 363.600,109.600 363.428,109.600 363.218 C 109.600 363.008,110.230 362.718,111.000 362.574 C 111.770 362.429,112.400 362.151,112.400 361.955 C 112.400 361.760,112.670 361.600,113.000 361.600 C 113.330 361.600,113.600 361.428,113.600 361.218 C 113.600 361.008,114.230 360.718,115.000 360.574 C 115.770 360.429,116.400 360.151,116.400 359.955 C 116.400 359.760,116.670 359.600,117.000 359.600 C 117.330 359.600,117.600 359.434,117.600 359.232 C 117.600 359.029,118.121 358.749,118.759 358.609 C 119.396 358.469,120.224 358.015,120.600 357.600 C 120.976 357.185,121.804 356.731,122.441 356.591 C 123.079 356.451,123.600 356.171,123.600 355.968 C 123.600 355.766,123.870 355.600,124.200 355.600 C 124.530 355.600,124.800 355.440,124.800 355.245 C 124.800 355.049,125.430 354.771,126.200 354.626 C 126.970 354.482,127.600 354.192,127.600 353.982 C 127.600 353.772,127.870 353.600,128.200 353.600 C 128.530 353.600,128.800 353.440,128.800 353.245 C 128.800 353.049,129.430 352.771,130.200 352.626 C 130.970 352.482,131.600 352.192,131.600 351.982 C 131.600 351.772,131.870 351.600,132.200 351.600 C 132.530 351.600,132.800 351.440,132.800 351.243 C 132.800 351.047,133.250 350.774,133.800 350.636 C 134.350 350.498,134.800 350.208,134.800 349.992 C 134.800 349.777,135.160 349.600,135.600 349.600 C 136.040 349.600,136.400 349.434,136.400 349.232 C 136.400 349.029,136.940 348.745,137.600 348.600 C 138.260 348.455,138.800 348.171,138.800 347.968 C 138.800 347.766,139.160 347.600,139.600 347.600 C 140.040 347.600,140.400 347.434,140.400 347.232 C 140.400 347.029,140.940 346.745,141.600 346.600 C 142.260 346.455,142.800 346.171,142.800 345.968 C 142.800 345.766,143.160 345.600,143.600 345.600 C 144.040 345.600,144.400 345.440,144.400 345.243 C 144.400 345.047,144.809 344.784,145.308 344.659 C 145.807 344.534,146.614 344.060,147.100 343.607 C 147.587 343.154,148.528 342.674,149.192 342.542 C 149.857 342.409,150.400 342.142,150.400 341.950 C 150.400 341.757,150.670 341.600,151.000 341.600 C 151.330 341.600,151.600 341.428,151.600 341.218 C 151.600 341.008,152.230 340.718,153.000 340.574 C 153.770 340.429,154.400 340.151,154.400 339.955 C 154.400 339.760,154.670 339.600,155.000 339.600 C 155.330 339.600,155.600 339.440,155.600 339.243 C 155.600 339.047,156.073 338.768,156.651 338.623 C 157.230 338.478,158.352 337.918,159.144 337.379 C 159.937 336.841,160.814 336.400,161.093 336.400 C 161.372 336.400,161.600 336.220,161.600 336.000 C 161.600 335.780,161.870 335.600,162.200 335.600 C 162.530 335.600,162.800 335.440,162.800 335.245 C 162.800 335.049,163.430 334.771,164.200 334.626 C 164.970 334.482,165.600 334.192,165.600 333.982 C 165.600 333.772,165.870 333.600,166.200 333.600 C 166.530 333.600,166.800 333.440,166.800 333.245 C 166.800 333.049,167.430 332.771,168.200 332.626 C 168.970 332.482,169.600 332.192,169.600 331.982 C 169.600 331.772,169.870 331.600,170.200 331.600 C 170.530 331.600,170.802 331.465,170.804 331.300 C 170.806 331.135,171.616 330.645,172.604 330.210 C 173.592 329.776,174.400 329.295,174.400 329.142 C 174.400 328.989,174.940 328.745,175.600 328.600 C 176.260 328.455,176.800 328.171,176.800 327.968 C 176.800 327.766,177.160 327.600,177.600 327.600 C 178.040 327.600,178.400 327.434,178.400 327.232 C 178.400 327.029,178.940 326.745,179.600 326.600 C 180.260 326.455,180.800 326.171,180.800 325.968 C 180.800 325.766,181.160 325.600,181.600 325.600 C 182.040 325.600,182.400 325.434,182.400 325.232 C 182.400 325.029,182.940 324.745,183.600 324.600 C 184.260 324.455,184.800 324.171,184.800 323.968 C 184.800 323.766,184.993 323.600,185.229 323.600 C 185.464 323.600,185.927 323.330,186.257 323.000 C 186.587 322.670,187.204 322.400,187.629 322.400 C 188.053 322.400,188.400 322.220,188.400 322.000 C 188.400 321.780,188.670 321.600,189.000 321.600 C 189.330 321.600,189.600 321.428,189.600 321.218 C 189.600 321.008,190.230 320.718,191.000 320.574 C 191.770 320.429,192.400 320.151,192.400 319.955 C 192.400 319.760,192.670 319.600,193.000 319.600 C 193.330 319.600,193.600 319.420,193.600 319.200 C 193.600 318.980,193.779 318.800,193.997 318.800 C 194.680 318.800,197.600 317.427,197.600 317.106 C 197.600 316.938,197.857 316.800,198.171 316.800 C 198.486 316.800,199.026 316.517,199.371 316.171 C 199.943 315.600,200.057 315.600,200.629 316.171 C 200.974 316.517,201.514 316.800,201.829 316.800 C 202.143 316.800,202.400 316.938,202.400 317.106 C 202.400 317.427,205.320 318.800,206.003 318.800 C 206.221 318.800,206.400 318.980,206.400 319.200 C 206.400 319.420,206.670 319.600,207.000 319.600 C 207.330 319.600,207.600 319.760,207.600 319.955 C 207.600 320.151,208.230 320.429,209.000 320.574 C 209.770 320.718,210.400 321.008,210.400 321.218 C 210.400 321.428,210.670 321.600,211.000 321.600 C 211.330 321.600,211.600 321.780,211.600 322.000 C 211.600 322.220,211.947 322.400,212.371 322.400 C 212.796 322.400,213.413 322.670,213.743 323.000 C 214.073 323.330,214.536 323.600,214.771 323.600 C 215.007 323.600,215.200 323.766,215.200 323.968 C 215.200 324.171,215.740 324.455,216.400 324.600 C 217.060 324.745,217.600 325.029,217.600 325.232 C 217.600 325.434,217.960 325.600,218.400 325.600 C 218.840 325.600,219.200 325.766,219.200 325.968 C 219.200 326.171,219.740 326.455,220.400 326.600 C 221.060 326.745,221.600 327.029,221.600 327.232 C 221.600 327.434,221.960 327.600,222.400 327.600 C 222.840 327.600,223.200 327.766,223.200 327.968 C 223.200 328.171,223.740 328.455,224.400 328.600 C 225.060 328.745,225.600 329.029,225.600 329.232 C 225.600 329.434,225.848 329.600,226.151 329.600 C 226.454 329.600,226.926 329.870,227.200 330.200 C 227.474 330.530,228.036 330.800,228.449 330.800 C 228.862 330.800,229.200 330.980,229.200 331.200 C 229.200 331.420,229.470 331.600,229.800 331.600 C 230.130 331.600,230.400 331.772,230.400 331.982 C 230.400 332.192,231.030 332.482,231.800 332.626 C 232.570 332.771,233.200 333.049,233.200 333.245 C 233.200 333.440,233.470 333.600,233.800 333.600 C 234.130 333.600,234.400 333.772,234.400 333.982 C 234.400 334.192,235.030 334.482,235.800 334.626 C 236.570 334.771,237.200 335.049,237.200 335.245 C 237.200 335.440,237.470 335.600,237.800 335.600 C 238.130 335.600,238.400 335.780,238.400 336.000 C 238.400 336.220,238.628 336.400,238.907 336.400 C 239.186 336.400,240.063 336.841,240.856 337.379 C 241.648 337.918,242.770 338.478,243.349 338.623 C 243.927 338.768,244.400 339.047,244.400 339.243 C 244.400 339.440,244.670 339.600,245.000 339.600 C 245.330 339.600,245.600 339.760,245.600 339.955 C 245.600 340.151,246.230 340.429,247.000 340.574 C 247.770 340.718,248.400 341.008,248.400 341.218 C 248.400 341.428,248.670 341.600,249.000 341.600 C 249.330 341.600,249.600 341.757,249.600 341.950 C 249.600 342.143,250.143 342.409,250.808 342.542 C 251.472 342.674,252.413 343.154,252.900 343.607 C 253.386 344.060,254.193 344.534,254.692 344.659 C 255.191 344.784,255.600 345.047,255.600 345.243 C 255.600 345.440,255.960 345.600,256.400 345.600 C 256.840 345.600,257.200 345.766,257.200 345.968 C 257.200 346.171,257.740 346.455,258.400 346.600 C 259.060 346.745,259.600 347.029,259.600 347.232 C 259.600 347.434,259.960 347.600,260.400 347.600 C 260.840 347.600,261.200 347.766,261.200 347.968 C 261.200 348.171,261.740 348.455,262.400 348.600 C 263.060 348.745,263.600 349.029,263.600 349.232 C 263.600 349.434,263.960 349.600,264.400 349.600 C 264.840 349.600,265.200 349.777,265.200 349.992 C 265.200 350.208,265.650 350.498,266.200 350.636 C 266.750 350.774,267.200 351.047,267.200 351.243 C 267.200 351.440,267.470 351.600,267.800 351.600 C 268.130 351.600,268.400 351.772,268.400 351.982 C 268.400 352.192,269.030 352.482,269.800 352.626 C 270.570 352.771,271.200 353.049,271.200 353.245 C 271.200 353.440,271.470 353.600,271.800 353.600 C 272.130 353.600,272.400 353.772,272.400 353.982 C 272.400 354.192,273.030 354.482,273.800 354.626 C 274.570 354.771,275.200 355.049,275.200 355.245 C 275.200 355.440,275.470 355.600,275.800 355.600 C 276.130 355.600,276.400 355.780,276.400 356.000 C 276.400 356.220,276.628 356.400,276.907 356.400 C 277.186 356.400,278.063 356.841,278.856 357.379 C 279.648 357.918,280.770 358.478,281.349 358.623 C 281.927 358.768,282.400 359.047,282.400 359.243 C 282.400 359.440,282.670 359.600,283.000 359.600 C 283.330 359.600,283.600 359.760,283.600 359.955 C 283.600 360.151,284.230 360.429,285.000 360.574 C 285.770 360.718,286.400 361.008,286.400 361.218 C 286.400 361.428,286.670 361.600,287.000 361.600 C 287.330 361.600,287.600 361.760,287.600 361.955 C 287.600 362.151,288.230 362.429,289.000 362.574 C 289.770 362.718,290.400 363.008,290.400 363.218 C 290.400 363.428,290.670 363.600,291.000 363.600 C 291.330 363.600,291.600 363.753,291.600 363.940 C 291.600 364.127,292.410 364.613,293.400 365.022 C 294.390 365.430,295.200 365.893,295.200 366.050 C 295.200 366.208,295.740 366.455,296.400 366.600 C 297.060 366.745,297.600 367.029,297.600 367.232 C 297.600 367.434,297.960 367.600,298.400 367.600 C 298.840 367.600,299.200 367.766,299.200 367.968 C 299.200 368.171,299.740 368.455,300.400 368.600 C 301.060 368.745,301.600 369.029,301.600 369.232 C 301.600 369.434,301.960 369.600,302.400 369.600 C 302.840 369.600,303.200 369.780,303.200 370.000 C 303.200 370.220,303.425 370.401,303.700 370.402 C 303.975 370.403,305.010 370.942,306.000 371.600 C 306.990 372.258,308.115 372.797,308.500 372.798 C 308.885 372.799,309.200 372.980,309.200 373.200 C 309.200 373.420,309.470 373.600,309.800 373.600 C 310.130 373.600,310.400 373.772,310.400 373.982 C 310.400 374.192,311.030 374.482,311.800 374.626 C 312.570 374.771,313.200 375.049,313.200 375.245 C 313.200 375.440,313.470 375.600,313.800 375.600 C 314.130 375.600,314.400 375.766,314.400 375.968 C 314.400 376.171,314.970 376.462,315.667 376.615 C 316.363 376.768,317.305 377.239,317.759 377.662 C 318.213 378.085,318.993 378.534,319.492 378.659 C 319.991 378.784,320.400 379.047,320.400 379.243 C 320.400 379.440,320.670 379.600,321.000 379.600 C 321.330 379.600,321.600 379.780,321.600 380.000 C 321.600 380.220,322.230 380.400,323.000 380.400 C 324.413 380.400,325.103 378.882,324.000 378.200 C 323.780 378.064,323.600 377.164,323.600 376.200 C 323.600 375.236,323.437 374.346,323.237 374.223 C 323.038 374.100,322.746 372.289,322.590 370.199 C 322.433 368.110,322.146 366.400,321.952 366.400 C 321.759 366.400,321.600 365.500,321.600 364.400 C 321.600 363.300,321.454 362.400,321.275 362.400 C 321.096 362.400,320.735 360.645,320.473 358.500 C 319.773 352.777,319.546 351.445,319.191 351.000 C 319.016 350.780,318.743 348.935,318.585 346.900 C 318.426 344.865,318.140 343.200,317.948 343.200 C 317.757 343.200,317.600 342.300,317.600 341.200 C 317.600 340.100,317.441 339.200,317.248 339.200 C 317.054 339.200,316.767 337.490,316.610 335.401 C 316.454 333.311,316.162 331.500,315.963 331.377 C 315.763 331.254,315.600 330.364,315.600 329.400 C 315.600 328.436,315.437 327.546,315.237 327.423 C 315.038 327.300,314.746 325.489,314.590 323.399 C 314.433 321.310,314.146 319.600,313.952 319.600 C 313.759 319.600,313.600 318.700,313.600 317.600 C 313.600 316.500,313.443 315.600,313.252 315.600 C 313.060 315.600,312.777 313.982,312.622 312.005 C 312.467 310.028,312.174 308.308,311.970 308.182 C 311.767 308.056,311.600 307.164,311.600 306.200 C 311.600 305.236,311.437 304.346,311.237 304.223 C 311.038 304.100,310.746 302.289,310.590 300.199 C 310.433 298.110,310.146 296.400,309.952 296.400 C 309.759 296.400,309.600 295.500,309.600 294.400 C 309.600 293.300,309.441 292.400,309.248 292.400 C 309.054 292.400,308.767 290.690,308.610 288.601 C 308.454 286.511,308.162 284.700,307.963 284.577 C 307.763 284.454,307.600 283.654,307.600 282.800 C 307.600 281.946,307.437 281.146,307.237 281.023 C 307.038 280.900,306.746 279.089,306.590 276.999 C 306.433 274.910,306.146 273.200,305.952 273.200 C 305.759 273.200,305.600 272.300,305.600 271.200 C 305.600 270.100,305.441 269.200,305.248 269.200 C 305.054 269.200,304.767 267.490,304.610 265.401 C 304.454 263.311,304.162 261.500,303.963 261.377 C 303.763 261.254,303.600 260.364,303.600 259.400 C 303.600 258.436,303.437 257.546,303.237 257.423 C 303.038 257.300,302.746 255.489,302.590 253.399 C 302.433 251.310,302.146 249.600,301.952 249.600 C 301.759 249.600,301.600 248.700,301.600 247.600 C 301.600 246.500,301.420 245.600,301.200 245.600 C 298.243 245.600,305.183 237.613,319.968 224.000 C 321.999 222.130,323.917 220.362,324.230 220.071 C 324.716 219.620,324.800 213.213,324.800 176.371 L 324.800 133.200 323.224 133.200 C 322.357 133.200,321.536 133.020,321.400 132.800 C 321.264 132.580,320.184 132.400,319.000 132.400 C 317.816 132.400,316.745 132.235,316.621 132.034 C 316.496 131.832,314.416 131.539,311.997 131.382 C 309.579 131.225,307.600 130.940,307.600 130.749 C 307.600 130.557,306.520 130.400,305.200 130.400 C 303.880 130.400,302.800 130.238,302.800 130.039 C 302.800 129.841,300.730 129.550,298.200 129.392 C 295.670 129.233,293.600 128.946,293.600 128.752 C 293.600 128.558,292.621 128.400,291.424 128.400 C 290.227 128.400,289.147 128.237,289.024 128.039 C 288.901 127.840,286.908 127.548,284.594 127.390 C 282.281 127.233,280.290 126.945,280.170 126.752 C 280.051 126.558,278.984 126.400,277.800 126.400 C 276.616 126.400,275.548 126.240,275.427 126.044 C 275.306 125.848,273.224 125.558,270.800 125.400 C 268.376 125.242,266.294 124.952,266.173 124.756 C 266.052 124.560,265.153 124.400,264.176 124.400 C 262.864 124.400,262.400 124.243,262.400 123.800 C 262.400 123.470,262.220 123.200,262.000 123.200 C 261.780 123.200,261.600 122.840,261.600 122.400 C 261.600 121.960,261.434 121.600,261.232 121.600 C 261.029 121.600,260.745 121.060,260.600 120.400 C 260.455 119.740,260.171 119.200,259.968 119.200 C 259.766 119.200,259.600 118.840,259.600 118.400 C 259.600 117.960,259.434 117.600,259.232 117.600 C 259.029 117.600,258.745 117.060,258.600 116.400 C 258.455 115.740,258.171 115.200,257.968 115.200 C 257.766 115.200,257.600 114.840,257.600 114.400 C 257.600 113.960,257.434 113.600,257.232 113.600 C 257.029 113.600,256.745 113.060,256.600 112.400 C 256.455 111.740,256.171 111.200,255.968 111.200 C 255.766 111.200,255.600 110.840,255.600 110.400 C 255.600 109.960,255.434 109.600,255.232 109.600 C 255.029 109.600,254.745 109.060,254.600 108.400 C 254.455 107.740,254.171 107.200,253.968 107.200 C 253.766 107.200,253.600 106.840,253.600 106.400 C 253.600 105.960,253.434 105.600,253.232 105.600 C 253.029 105.600,252.745 105.060,252.600 104.400 C 252.455 103.740,252.171 103.200,251.968 103.200 C 251.766 103.200,251.600 102.840,251.600 102.400 C 251.600 101.960,251.434 101.600,251.232 101.600 C 251.029 101.600,250.745 101.060,250.600 100.400 C 250.455 99.740,250.171 99.200,249.968 99.200 C 249.766 99.200,249.600 98.840,249.600 98.400 C 249.600 97.960,249.434 97.600,249.232 97.600 C 249.029 97.600,248.745 97.060,248.600 96.400 C 248.455 95.740,248.171 95.200,247.968 95.200 C 247.766 95.200,247.600 94.840,247.600 94.400 C 247.600 93.960,247.434 93.600,247.232 93.600 C 247.029 93.600,246.745 93.060,246.600 92.400 C 246.455 91.740,246.171 91.200,245.968 91.200 C 245.766 91.200,245.600 90.840,245.600 90.400 C 245.600 89.960,245.434 89.600,245.232 89.600 C 245.029 89.600,244.745 89.060,244.600 88.400 C 244.455 87.740,244.171 87.200,243.968 87.200 C 243.766 87.200,243.600 86.840,243.600 86.400 C 243.600 85.960,243.420 85.600,243.200 85.600 C 242.980 85.600,242.800 85.402,242.800 85.160 C 242.800 84.918,242.080 83.204,241.200 81.352 C 240.320 79.500,239.600 77.808,239.600 77.592 C 239.600 77.377,239.420 77.200,239.200 77.200 C 238.980 77.200,238.800 77.002,238.800 76.760 C 238.800 76.221,237.544 73.476,237.171 73.200 C 237.022 73.090,236.774 72.415,236.618 71.700 C 236.463 70.985,236.171 70.400,235.968 70.400 C 235.766 70.400,235.600 70.130,235.600 69.800 C 235.600 69.470,235.440 69.200,235.245 69.200 C 235.049 69.200,234.771 68.570,234.626 67.800 C 234.482 67.030,234.192 66.400,233.982 66.400 C 233.772 66.400,233.600 66.130,233.600 65.800 C 233.600 65.470,233.440 65.200,233.245 65.200 C 233.049 65.200,232.771 64.570,232.626 63.800 C 232.482 63.030,232.192 62.400,231.982 62.400 C 231.772 62.400,231.600 62.130,231.600 61.800 C 231.600 61.470,231.440 61.200,231.245 61.200 C 231.049 61.200,230.771 60.570,230.626 59.800 C 230.482 59.030,230.192 58.400,229.982 58.400 C 229.772 58.400,229.600 58.130,229.600 57.800 C 229.600 57.470,229.440 57.200,229.245 57.200 C 229.049 57.200,228.771 56.570,228.626 55.800 C 228.482 55.030,228.192 54.400,227.982 54.400 C 227.772 54.400,227.600 54.130,227.600 53.800 C 227.600 53.470,227.440 53.200,227.245 53.200 C 227.049 53.200,226.771 52.570,226.626 51.800 C 226.482 51.030,226.192 50.400,225.982 50.400 C 225.772 50.400,225.600 50.130,225.600 49.800 C 225.600 49.470,225.440 49.200,225.245 49.200 C 225.049 49.200,224.771 48.570,224.626 47.800 C 224.482 47.030,224.192 46.400,223.982 46.400 C 223.772 46.400,223.600 46.130,223.600 45.800 C 223.600 45.470,223.440 45.200,223.245 45.200 C 223.049 45.200,222.771 44.570,222.626 43.800 C 222.482 43.030,222.192 42.400,221.982 42.400 C 221.772 42.400,221.600 42.130,221.600 41.800 C 221.600 41.470,221.440 41.200,221.245 41.200 C 221.049 41.200,220.771 40.570,220.626 39.800 C 220.482 39.030,220.192 38.400,219.982 38.400 C 219.772 38.400,219.600 38.130,219.600 37.800 C 219.600 37.470,219.440 37.200,219.245 37.200 C 219.049 37.200,218.771 36.570,218.626 35.800 C 218.482 35.030,218.192 34.400,217.982 34.400 C 217.772 34.400,217.600 34.130,217.600 33.800 C 217.600 33.470,217.443 33.200,217.250 33.200 C 217.058 33.200,216.789 32.645,216.653 31.966 C 216.518 31.288,216.045 30.225,215.603 29.605 C 215.161 28.984,214.800 28.290,214.800 28.062 C 214.800 27.834,214.305 26.687,213.700 25.513 C 213.095 24.338,212.341 22.707,212.025 21.889 C 211.709 21.070,211.304 20.400,211.125 20.400 C 210.946 20.400,210.800 20.221,210.800 20.003 C 210.800 19.320,209.427 16.400,209.106 16.400 C 208.938 16.400,208.800 16.221,208.800 16.003 C 208.800 15.341,207.432 12.400,207.124 12.400 C 206.966 12.400,206.718 11.770,206.574 11.000 C 206.429 10.230,206.151 9.600,205.955 9.600 C 205.760 9.600,205.600 9.330,205.600 9.000 C 205.600 8.670,205.428 8.400,205.218 8.400 C 205.008 8.400,204.718 7.770,204.574 7.000 C 204.429 6.230,204.151 5.600,203.955 5.600 C 203.760 5.600,203.600 5.330,203.600 5.000 C 203.600 4.670,203.428 4.400,203.218 4.400 C 203.008 4.400,202.718 3.770,202.574 3.000 C 202.429 2.230,202.151 1.600,201.955 1.600 C 201.760 1.600,201.600 1.349,201.600 1.043 C 201.600 0.189,200.135 -0.233,198.900 0.265 " stroke="none" fill="#fcdc04" fill-rule="evenodd"></path><path id="path1" d="M324.800 176.081 C 324.800 203.125,324.941 218.800,325.184 218.800 C 325.396 218.800,325.801 218.521,326.084 218.181 C 326.368 217.840,326.834 217.345,327.119 217.081 C 327.405 216.816,327.855 216.366,328.119 216.081 C 328.384 215.795,328.834 215.345,329.119 215.081 C 329.405 214.816,329.855 214.366,330.119 214.081 C 330.384 213.795,330.834 213.345,331.119 213.081 C 331.405 212.816,331.855 212.366,332.119 212.081 C 332.384 211.795,332.834 211.345,333.119 211.081 C 333.405 210.816,333.855 210.366,334.119 210.081 C 334.384 209.795,334.834 209.345,335.119 209.081 C 335.405 208.816,335.855 208.366,336.119 208.081 C 336.384 207.795,336.834 207.345,337.119 207.081 C 337.405 206.816,337.855 206.366,338.119 206.081 C 338.384 205.795,338.834 205.345,339.119 205.081 C 339.405 204.816,339.855 204.369,340.119 204.086 C 340.384 203.803,340.805 203.353,341.056 203.086 C 341.307 202.819,342.556 201.700,343.832 200.600 C 345.108 199.500,351.036 193.740,357.006 187.800 C 362.975 181.860,369.270 175.743,370.994 174.207 C 372.718 172.670,379.191 166.370,385.378 160.207 C 391.565 154.043,397.386 148.376,398.314 147.614 C 401.522 144.977,400.458 143.810,394.455 143.384 C 392.215 143.226,390.286 142.939,390.168 142.748 C 390.050 142.557,388.973 142.400,387.776 142.400 C 386.579 142.400,385.600 142.242,385.600 142.048 C 385.600 141.854,383.530 141.567,381.000 141.408 C 378.470 141.250,376.400 140.959,376.400 140.761 C 376.400 140.562,375.320 140.400,374.000 140.400 C 372.680 140.400,371.600 140.243,371.600 140.051 C 371.600 139.860,369.621 139.575,367.203 139.418 C 364.784 139.261,362.704 138.968,362.579 138.766 C 362.455 138.565,361.384 138.400,360.200 138.400 C 359.016 138.400,357.945 138.235,357.821 138.034 C 357.696 137.832,355.616 137.539,353.197 137.382 C 350.779 137.225,348.800 136.940,348.800 136.749 C 348.800 136.557,347.821 136.400,346.624 136.400 C 345.427 136.400,344.347 136.238,344.224 136.040 C 344.102 135.841,341.931 135.550,339.401 135.392 C 336.870 135.233,334.800 134.946,334.800 134.752 C 334.800 134.558,333.825 134.400,332.633 134.400 C 331.442 134.400,330.407 134.242,330.333 134.048 C 330.260 133.855,328.985 133.621,327.500 133.529 L 324.800 133.362 324.800 176.081 " stroke="none" fill="#949494" fill-rule="evenodd"></path></g></svg>