<svg id="svg" version="1.1" xmlns="http://www.w3.org/2000/svg" xmlns:xlink="http://www.w3.org/1999/xlink" width="400" height="400" viewBox="0, 0, 400,400"><g id="svgg"><path id="path0" d="M198.400 1.200 C 197.930 1.860,197.652 2.400,197.783 2.400 C 197.914 2.400,197.753 2.917,197.426 3.549 C 197.099 4.181,196.960 4.840,197.116 5.013 C 197.272 5.187,197.175 5.199,196.900 5.041 C 196.569 4.850,196.400 5.031,196.400 5.576 C 196.400 6.029,196.255 6.400,196.077 6.400 C 195.899 6.400,195.436 7.120,195.048 8.000 C 194.660 8.880,194.175 9.600,193.971 9.600 C 193.767 9.600,193.600 9.791,193.600 10.024 C 193.600 10.257,193.811 10.317,194.069 10.157 C 194.327 9.998,194.237 10.297,193.869 10.823 C 193.501 11.348,193.200 12.024,193.200 12.325 C 193.200 12.626,192.795 13.229,192.300 13.666 C 191.805 14.103,191.640 14.338,191.933 14.187 C 192.226 14.036,192.001 14.649,191.433 15.548 C 190.865 16.448,190.400 17.458,190.400 17.792 C 190.400 18.126,190.223 18.400,190.008 18.400 C 189.792 18.400,189.502 18.850,189.364 19.400 C 189.226 19.950,188.997 20.400,188.854 20.400 C 188.712 20.400,188.364 20.985,188.080 21.700 C 187.797 22.415,187.303 23.510,186.983 24.132 C 186.662 24.755,186.400 25.443,186.400 25.661 C 186.400 25.879,186.130 26.327,185.800 26.657 C 185.470 26.987,185.200 27.679,185.200 28.195 C 185.200 28.711,185.065 29.193,184.900 29.267 C 184.439 29.472,183.200 31.848,183.200 32.528 C 183.200 32.861,183.065 33.193,182.900 33.267 C 182.427 33.477,181.200 35.856,181.200 36.562 C 181.200 36.913,181.060 37.200,180.888 37.200 C 180.716 37.200,180.227 38.100,179.800 39.200 C 179.373 40.300,178.884 41.200,178.712 41.200 C 178.540 41.200,178.400 41.455,178.400 41.767 C 178.400 42.078,178.231 42.393,178.024 42.467 C 177.816 42.540,177.553 43.125,177.438 43.768 C 177.323 44.410,177.087 45.040,176.914 45.168 C 176.435 45.522,175.200 48.341,175.200 49.080 C 175.200 49.439,175.085 49.618,174.944 49.477 C 174.637 49.170,173.200 51.742,173.200 52.599 C 173.200 52.929,173.020 53.200,172.800 53.200 C 172.580 53.200,172.400 53.470,172.400 53.800 C 172.400 54.130,172.175 54.403,171.900 54.406 C 171.567 54.410,171.600 54.542,172.000 54.800 C 172.388 55.051,172.426 55.190,172.108 55.194 C 171.837 55.197,171.493 55.695,171.344 56.300 C 171.194 56.905,170.729 57.701,170.310 58.070 C 169.890 58.438,169.559 58.843,169.574 58.970 C 169.588 59.096,169.586 59.245,169.569 59.300 C 169.553 59.355,169.472 59.757,169.391 60.193 C 169.310 60.629,169.054 61.049,168.822 61.126 C 168.590 61.203,168.400 61.590,168.400 61.984 C 168.400 62.379,168.130 62.926,167.800 63.200 C 167.470 63.474,167.200 64.012,167.200 64.395 C 167.200 64.778,166.840 65.550,166.400 66.109 C 165.960 66.669,165.600 67.341,165.600 67.603 C 165.600 68.564,164.301 70.786,163.888 70.531 C 163.623 70.367,163.560 70.519,163.719 70.934 C 163.860 71.300,163.801 71.600,163.587 71.600 C 163.374 71.600,163.245 71.735,163.299 71.900 C 163.430 72.297,161.122 76.917,160.604 77.294 C 160.382 77.456,160.332 77.591,160.494 77.594 C 160.656 77.597,160.432 78.185,159.996 78.900 C 159.560 79.615,159.202 80.515,159.201 80.900 C 159.201 81.285,159.020 81.600,158.800 81.600 C 158.580 81.600,158.400 81.960,158.400 82.400 C 158.400 82.840,158.240 83.200,158.045 83.200 C 157.849 83.200,157.570 83.835,157.424 84.611 C 157.279 85.387,156.989 85.917,156.780 85.788 C 156.571 85.658,156.394 85.878,156.387 86.276 C 156.380 86.674,156.110 87.349,155.787 87.776 C 155.464 88.204,155.200 88.879,155.200 89.276 C 155.200 89.674,155.020 90.000,154.800 90.000 C 154.580 90.000,154.400 90.270,154.400 90.600 C 154.400 90.930,154.220 91.200,154.000 91.200 C 153.780 91.200,153.600 91.547,153.600 91.971 C 153.600 92.396,153.330 93.013,153.000 93.343 C 152.670 93.673,152.400 94.121,152.400 94.339 C 152.400 94.876,151.074 97.367,150.700 97.533 C 150.535 97.607,150.400 97.909,150.400 98.206 C 150.400 98.914,146.943 106.010,146.712 105.778 C 146.614 105.680,146.533 105.832,146.533 106.114 C 146.533 107.107,145.059 109.960,144.670 109.719 C 144.453 109.586,144.388 109.658,144.525 109.879 C 144.662 110.101,144.516 110.624,144.200 111.041 C 143.884 111.458,143.620 112.106,143.613 112.480 C 143.606 112.854,143.285 113.337,142.900 113.552 C 142.515 113.767,142.245 114.046,142.300 114.172 C 142.555 114.755,142.360 115.622,142.020 115.412 C 141.811 115.283,141.524 115.797,141.382 116.554 C 141.240 117.311,140.810 118.267,140.427 118.679 C 140.044 119.090,139.607 119.916,139.457 120.513 C 139.307 121.111,138.963 121.603,138.692 121.606 C 138.328 121.611,138.321 121.689,138.664 121.908 C 139.531 122.459,137.428 124.360,135.832 124.467 C 135.044 124.520,134.400 124.676,134.400 124.813 C 134.400 124.951,133.455 125.102,132.300 125.150 C 131.145 125.198,129.120 125.388,127.800 125.572 C 126.480 125.756,125.237 125.809,125.038 125.691 C 124.839 125.573,124.795 125.668,124.939 125.901 C 125.107 126.173,124.445 126.392,123.101 126.509 C 121.945 126.609,120.550 126.790,120.000 126.911 C 119.054 127.119,114.571 127.607,112.400 127.739 C 111.850 127.773,111.307 127.922,111.194 128.072 C 111.080 128.221,109.971 128.400,108.729 128.468 C 107.487 128.536,106.540 128.703,106.625 128.840 C 106.775 129.083,100.862 129.663,98.726 129.615 C 98.136 129.602,97.540 129.773,97.403 129.996 C 97.265 130.218,96.389 130.400,95.456 130.400 C 94.523 130.400,93.518 130.625,93.221 130.900 C 92.790 131.300,92.739 131.300,92.965 130.900 C 93.120 130.625,93.057 130.400,92.824 130.400 C 92.591 130.400,92.400 130.553,92.400 130.741 C 92.400 130.928,91.005 131.198,89.300 131.341 C 85.566 131.653,85.160 131.723,84.438 132.173 C 84.053 132.413,83.966 132.378,84.162 132.062 C 84.319 131.808,84.272 131.600,84.057 131.600 C 83.842 131.600,83.607 131.766,83.533 131.968 C 83.460 132.171,82.410 132.380,81.200 132.432 C 79.990 132.485,78.820 132.661,78.600 132.823 C 78.380 132.985,76.670 133.253,74.800 133.419 C 72.930 133.584,71.127 133.747,70.793 133.779 C 70.459 133.811,69.999 133.953,69.772 134.094 C 69.544 134.235,68.422 134.406,67.279 134.475 C 66.135 134.544,65.200 134.708,65.200 134.841 C 65.200 135.047,62.002 135.425,57.298 135.774 C 56.582 135.827,55.877 135.990,55.731 136.135 C 55.586 136.281,54.496 136.400,53.310 136.400 C 52.123 136.400,51.250 136.557,51.369 136.749 C 51.563 137.064,46.644 137.649,43.900 137.637 C 43.295 137.634,42.800 137.805,42.800 138.016 C 42.800 138.227,41.720 138.400,40.400 138.400 C 39.080 138.400,38.000 138.555,38.000 138.745 C 38.000 138.935,36.253 139.219,34.117 139.375 C 31.982 139.532,29.943 139.816,29.587 140.007 C 29.231 140.197,27.873 140.390,26.570 140.435 C 25.266 140.480,24.020 140.647,23.800 140.806 C 23.389 141.103,16.928 141.748,15.278 141.657 C 14.759 141.628,14.463 141.779,14.602 142.003 C 14.753 142.248,13.994 142.400,12.624 142.400 C 11.401 142.400,10.400 142.543,10.400 142.718 C 10.400 142.893,9.725 143.074,8.900 143.121 C 8.075 143.167,6.500 143.322,5.400 143.465 C 4.300 143.608,2.905 143.741,2.300 143.761 C 1.695 143.782,1.200 143.934,1.200 144.099 C 1.200 144.265,0.930 144.400,0.600 144.400 C -0.241 144.400,-0.147 145.488,0.800 146.691 C 1.240 147.250,1.600 147.595,1.600 147.458 C 1.600 147.100,3.059 148.346,4.749 150.147 C 6.927 152.469,12.948 158.423,14.611 159.900 C 15.416 160.615,15.940 161.200,15.776 161.200 C 15.481 161.200,15.986 161.667,18.370 163.596 C 19.046 164.143,19.600 164.741,19.600 164.924 C 19.600 165.460,20.680 166.387,20.968 166.098 C 21.113 165.954,21.336 166.232,21.463 166.717 C 21.591 167.207,22.008 167.600,22.400 167.600 C 22.789 167.600,23.206 167.978,23.326 168.440 C 23.451 168.916,23.736 169.163,23.983 169.011 C 24.223 168.862,24.394 168.889,24.363 169.070 C 24.216 169.915,24.464 170.366,25.206 170.602 C 25.649 170.743,25.908 171.025,25.782 171.229 C 25.656 171.433,25.736 171.600,25.961 171.600 C 26.185 171.600,26.736 171.994,27.184 172.475 C 27.633 172.957,28.000 173.220,28.000 173.060 C 28.000 172.899,28.251 173.001,28.558 173.284 C 28.865 173.568,29.034 173.935,28.934 174.100 C 28.835 174.265,28.972 174.400,29.239 174.400 C 29.507 174.400,32.674 177.370,36.277 181.000 C 39.881 184.630,42.996 187.600,43.200 187.600 C 43.405 187.600,43.787 188.001,44.049 188.492 C 44.619 189.556,45.617 190.600,46.065 190.600 C 46.243 190.600,47.079 191.436,47.923 192.457 C 49.954 194.915,50.659 195.600,51.157 195.600 C 51.385 195.600,51.787 196.001,52.049 196.492 C 52.521 197.373,53.464 198.466,53.686 198.388 C 54.114 198.238,55.200 198.984,55.200 199.429 C 55.200 199.727,55.538 200.153,55.952 200.374 C 56.365 200.595,57.801 201.907,59.142 203.288 C 60.483 204.670,61.720 205.929,61.890 206.087 C 64.894 208.870,67.775 211.873,67.690 212.130 C 67.630 212.311,67.766 212.344,67.994 212.204 C 68.221 212.063,68.712 212.478,69.083 213.126 C 69.455 213.774,70.354 214.624,71.080 215.015 C 71.806 215.406,72.400 215.968,72.400 216.263 C 72.400 216.558,72.681 216.800,73.024 216.800 C 73.367 216.800,73.538 216.977,73.404 217.194 C 73.270 217.410,73.683 217.905,74.322 218.294 C 75.455 218.983,75.600 219.177,75.600 220.000 C 75.600 220.220,75.864 220.400,76.186 220.400 C 76.508 220.400,76.967 220.765,77.206 221.211 C 77.445 221.657,77.816 221.914,78.030 221.781 C 78.244 221.649,78.371 221.689,78.311 221.870 C 78.173 222.289,81.416 225.650,81.692 225.374 C 81.805 225.261,82.686 226.009,83.649 227.037 C 84.612 228.064,85.825 229.311,86.345 229.808 C 87.761 231.162,87.863 231.265,89.611 233.100 C 90.502 234.035,91.434 234.800,91.682 234.800 C 91.930 234.800,92.014 234.919,91.869 235.065 C 91.723 235.210,92.233 235.757,93.002 236.279 C 93.771 236.801,94.400 237.522,94.400 237.881 C 94.400 238.240,94.506 238.427,94.636 238.297 C 94.961 237.973,98.400 241.256,98.400 241.890 C 98.400 242.171,98.580 242.400,98.800 242.400 C 99.020 242.400,99.200 243.120,99.200 244.000 C 99.200 244.880,99.020 245.600,98.800 245.600 C 98.580 245.600,98.400 246.601,98.400 247.824 C 98.400 249.047,98.251 249.955,98.069 249.843 C 97.887 249.730,97.739 250.124,97.741 250.719 C 97.742 251.314,97.585 253.150,97.392 254.800 C 97.199 256.450,97.076 257.935,97.120 258.100 C 97.164 258.265,97.020 258.400,96.800 258.400 C 96.580 258.400,96.400 259.221,96.400 260.224 C 96.400 261.576,96.271 261.970,95.900 261.747 C 95.609 261.572,95.650 261.761,96.000 262.200 C 96.330 262.614,96.400 262.834,96.155 262.687 C 95.706 262.418,95.211 265.133,95.203 267.900 C 95.202 268.615,95.020 269.200,94.800 269.200 C 94.580 269.200,94.400 270.100,94.400 271.200 C 94.400 272.300,94.240 273.200,94.044 273.200 C 93.849 273.200,93.707 273.425,93.730 273.700 C 93.847 275.127,93.056 281.200,92.753 281.200 C 92.559 281.200,92.400 282.111,92.400 283.224 C 92.400 284.736,92.274 285.171,91.900 284.947 C 91.609 284.772,91.650 284.961,92.000 285.400 C 92.330 285.814,92.391 286.028,92.136 285.875 C 91.806 285.678,91.590 286.582,91.389 288.999 C 91.233 290.869,90.975 292.400,90.816 292.400 C 90.657 292.400,90.495 293.297,90.456 294.393 C 90.418 295.489,90.223 296.814,90.023 297.338 C 89.824 297.863,89.545 299.531,89.403 301.046 C 89.261 302.561,88.973 304.356,88.763 305.036 C 88.553 305.715,88.356 306.923,88.326 307.719 C 88.296 308.516,88.145 309.090,87.990 308.994 C 87.695 308.811,87.209 312.084,87.203 314.300 C 87.202 315.015,87.020 315.600,86.800 315.600 C 86.580 315.600,86.400 316.500,86.400 317.600 C 86.400 318.700,86.239 319.600,86.043 319.600 C 85.847 319.600,85.684 320.275,85.680 321.100 C 85.676 321.925,85.465 323.860,85.211 325.400 C 84.956 326.940,84.652 329.055,84.535 330.100 C 84.419 331.145,84.177 331.909,83.999 331.799 C 83.821 331.689,83.547 333.309,83.390 335.399 C 83.233 337.490,82.946 339.200,82.752 339.200 C 82.559 339.200,82.400 340.100,82.400 341.200 C 82.400 342.300,82.240 343.200,82.044 343.200 C 81.849 343.200,81.706 343.425,81.727 343.700 C 81.845 345.257,81.042 351.550,80.749 351.368 C 80.557 351.250,80.400 352.074,80.400 353.200 C 80.400 354.326,80.256 355.158,80.080 355.049 C 79.904 354.941,79.745 355.245,79.726 355.726 C 79.631 358.190,79.050 362.400,78.806 362.400 C 78.652 362.400,78.495 363.297,78.456 364.393 C 78.418 365.489,78.228 366.800,78.035 367.308 C 77.842 367.816,77.553 369.664,77.393 371.415 C 77.233 373.167,76.962 374.870,76.791 375.200 C 76.620 375.530,76.421 376.430,76.349 377.200 C 76.276 377.970,76.052 378.717,75.850 378.860 C 75.649 379.002,75.594 379.407,75.729 379.760 C 75.999 380.462,78.400 380.678,78.400 380.000 C 78.400 379.780,78.670 379.600,79.000 379.600 C 79.330 379.600,79.600 379.440,79.600 379.243 C 79.600 379.047,80.050 378.774,80.600 378.636 C 81.150 378.498,81.600 378.208,81.600 377.992 C 81.600 377.777,81.870 377.600,82.200 377.600 C 82.530 377.600,82.800 377.443,82.800 377.250 C 82.800 377.058,83.343 376.791,84.008 376.658 C 84.672 376.526,85.587 376.070,86.042 375.646 C 86.497 375.223,87.484 374.761,88.235 374.620 C 88.986 374.479,89.600 374.192,89.600 373.982 C 89.600 373.772,89.870 373.600,90.200 373.600 C 90.530 373.600,90.800 373.434,90.800 373.231 C 90.800 373.028,91.432 372.654,92.204 372.399 C 92.976 372.144,93.835 371.725,94.114 371.468 C 94.913 370.730,99.534 368.400,100.199 368.400 C 100.530 368.400,100.800 368.220,100.800 368.000 C 100.800 367.780,101.205 367.597,101.700 367.594 C 102.370 367.589,102.459 367.498,102.047 367.237 C 101.640 366.979,101.823 366.815,102.742 366.613 C 103.429 366.462,104.094 366.172,104.219 365.969 C 104.345 365.766,104.797 365.600,105.224 365.600 C 105.651 365.600,106.001 365.465,106.003 365.300 C 106.006 364.898,108.319 363.600,109.032 363.600 C 109.345 363.600,109.600 363.428,109.600 363.218 C 109.600 363.008,110.230 362.718,111.000 362.574 C 111.770 362.429,112.400 362.151,112.400 361.955 C 112.400 361.760,112.670 361.600,113.000 361.600 C 113.330 361.600,113.600 361.423,113.600 361.208 C 113.600 360.992,114.050 360.702,114.600 360.564 C 115.150 360.426,115.600 360.153,115.600 359.957 C 115.600 359.760,115.870 359.600,116.200 359.600 C 116.530 359.600,116.800 359.420,116.800 359.200 C 116.800 358.980,117.250 358.800,117.800 358.800 C 118.350 358.800,118.800 358.626,118.800 358.413 C 118.800 358.199,119.051 358.122,119.358 358.239 C 119.666 358.357,120.164 358.127,120.465 357.727 C 121.092 356.896,123.387 355.600,124.232 355.600 C 124.545 355.600,124.800 355.434,124.800 355.232 C 124.800 355.029,125.385 354.735,126.100 354.578 C 126.814 354.421,127.691 353.957,128.047 353.546 C 128.403 353.136,129.078 352.800,129.547 352.800 C 130.016 352.800,130.400 352.628,130.400 352.419 C 130.400 352.209,131.075 351.744,131.900 351.385 C 132.725 351.027,133.670 350.563,134.000 350.355 C 134.330 350.147,134.915 349.871,135.300 349.742 C 135.685 349.612,136.000 349.348,136.000 349.153 C 136.000 348.959,136.338 348.800,136.751 348.800 C 137.164 348.800,137.726 348.530,138.000 348.200 C 138.274 347.870,138.849 347.600,139.278 347.600 C 139.706 347.600,140.327 347.330,140.657 347.000 C 140.987 346.670,141.615 346.400,142.052 346.400 C 142.489 346.400,142.736 346.220,142.600 346.000 C 142.464 345.780,142.723 345.600,143.176 345.600 C 143.629 345.600,144.367 345.233,144.815 344.785 C 145.263 344.337,145.775 344.061,145.954 344.172 C 146.133 344.282,146.663 344.015,147.132 343.578 C 147.601 343.141,148.528 342.674,149.192 342.542 C 149.857 342.409,150.400 342.142,150.400 341.950 C 150.400 341.757,150.670 341.600,151.000 341.600 C 151.330 341.600,151.601 341.465,151.603 341.300 C 151.604 341.135,152.152 340.689,152.821 340.308 C 153.490 339.927,153.907 339.828,153.747 340.087 C 153.586 340.345,154.011 340.162,154.690 339.679 C 155.368 339.195,156.121 338.800,156.362 338.800 C 156.603 338.800,156.800 338.609,156.800 338.376 C 156.800 338.143,156.981 338.065,157.203 338.202 C 157.536 338.408,159.672 337.217,160.400 336.419 C 160.784 335.999,165.804 333.600,166.300 333.600 C 166.575 333.600,166.800 333.420,166.800 333.200 C 166.800 332.980,167.136 332.800,167.546 332.800 C 167.956 332.800,168.745 332.444,169.299 332.008 C 169.853 331.572,170.732 331.033,171.253 330.809 C 172.216 330.395,173.637 329.563,174.000 329.200 C 174.110 329.090,175.370 328.460,176.800 327.800 C 178.230 327.140,179.457 326.475,179.526 326.322 C 179.595 326.170,179.910 326.144,180.226 326.265 C 180.542 326.386,180.800 326.286,180.800 326.043 C 180.800 325.799,181.048 325.600,181.351 325.600 C 181.654 325.600,182.124 325.332,182.396 325.004 C 182.668 324.677,183.038 324.500,183.218 324.611 C 183.398 324.722,183.660 324.627,183.800 324.400 C 183.940 324.173,184.204 324.079,184.386 324.191 C 184.567 324.304,184.829 324.101,184.968 323.740 C 185.106 323.380,185.324 323.190,185.452 323.319 C 185.580 323.447,186.046 323.216,186.486 322.805 C 186.927 322.395,187.538 322.155,187.844 322.272 C 188.150 322.390,188.400 322.320,188.400 322.117 C 188.400 321.767,193.499 319.066,196.300 317.931 C 197.015 317.642,197.600 317.269,197.600 317.102 C 197.600 316.936,197.793 316.800,198.029 316.800 C 198.264 316.800,198.727 316.530,199.057 316.200 C 199.812 315.446,200.188 315.446,200.943 316.200 C 201.273 316.530,201.736 316.800,201.971 316.800 C 202.207 316.800,202.400 316.936,202.400 317.102 C 202.400 317.269,202.985 317.642,203.700 317.931 C 206.501 319.066,211.600 321.767,211.600 322.117 C 211.600 322.320,211.850 322.390,212.156 322.272 C 212.462 322.155,213.073 322.395,213.514 322.805 C 213.954 323.216,214.420 323.447,214.548 323.319 C 214.676 323.190,214.894 323.380,215.032 323.740 C 215.171 324.101,215.433 324.304,215.614 324.191 C 215.796 324.079,216.060 324.173,216.200 324.400 C 216.340 324.627,216.602 324.722,216.782 324.611 C 216.962 324.500,217.332 324.677,217.604 325.004 C 217.876 325.332,218.346 325.600,218.649 325.600 C 218.952 325.600,219.200 325.799,219.200 326.043 C 219.200 326.286,219.470 326.382,219.800 326.255 C 220.130 326.129,220.400 326.199,220.400 326.413 C 220.400 326.626,220.760 326.800,221.200 326.800 C 221.640 326.800,222.000 326.940,222.000 327.112 C 222.000 327.284,222.900 327.773,224.000 328.200 C 225.100 328.627,226.000 329.116,226.000 329.288 C 226.000 329.460,226.276 329.600,226.613 329.600 C 226.949 329.600,227.329 329.870,227.455 330.200 C 227.582 330.530,227.991 330.800,228.365 330.800 C 228.739 330.800,229.655 331.250,230.400 331.800 C 231.145 332.350,232.080 332.800,232.478 332.800 C 232.875 332.800,233.200 332.980,233.200 333.200 C 233.200 333.420,233.425 333.600,233.700 333.600 C 234.196 333.600,239.216 335.999,239.600 336.419 C 240.328 337.217,242.464 338.408,242.797 338.202 C 243.019 338.065,243.200 338.098,243.201 338.276 C 243.201 338.454,244.371 339.134,245.801 339.786 C 247.230 340.439,248.400 341.114,248.400 341.286 C 248.400 341.459,248.670 341.600,249.000 341.600 C 249.330 341.600,249.600 341.757,249.600 341.950 C 249.600 342.143,250.143 342.409,250.808 342.542 C 251.472 342.674,252.399 343.141,252.868 343.578 C 253.337 344.015,253.867 344.282,254.046 344.172 C 254.225 344.061,254.737 344.337,255.185 344.785 C 255.633 345.233,256.270 345.600,256.600 345.600 C 256.930 345.600,257.200 345.780,257.200 346.000 C 257.200 346.220,257.547 346.400,257.971 346.400 C 258.396 346.400,259.013 346.670,259.343 347.000 C 259.673 347.330,260.294 347.600,260.722 347.600 C 261.151 347.600,261.726 347.870,262.000 348.200 C 262.274 348.530,262.836 348.800,263.249 348.800 C 263.662 348.800,264.000 348.959,264.000 349.153 C 264.000 349.348,264.315 349.612,264.700 349.742 C 265.085 349.871,265.670 350.150,266.000 350.363 C 266.330 350.575,267.176 350.980,267.880 351.263 C 268.649 351.572,268.979 351.889,268.708 352.057 C 268.459 352.211,268.963 352.468,269.828 352.629 C 270.692 352.789,271.670 353.230,272.000 353.607 C 272.331 353.984,273.186 354.421,273.900 354.578 C 274.615 354.735,275.200 355.029,275.200 355.232 C 275.200 355.434,275.450 355.600,275.755 355.600 C 276.060 355.600,277.236 356.237,278.368 357.016 C 279.500 357.794,280.600 358.324,280.813 358.192 C 281.026 358.060,281.200 358.143,281.200 358.376 C 281.200 358.609,281.650 358.800,282.200 358.800 C 282.750 358.800,283.200 358.980,283.200 359.200 C 283.200 359.420,283.470 359.600,283.800 359.600 C 284.130 359.600,284.400 359.760,284.400 359.957 C 284.400 360.153,284.850 360.426,285.400 360.564 C 285.950 360.702,286.400 360.992,286.400 361.208 C 286.400 361.423,286.670 361.600,287.000 361.600 C 287.330 361.600,287.600 361.760,287.600 361.955 C 287.600 362.151,288.230 362.429,289.000 362.574 C 289.770 362.718,290.400 363.008,290.400 363.218 C 290.400 363.428,290.766 363.600,291.213 363.600 C 291.659 363.600,292.129 363.870,292.255 364.200 C 292.382 364.530,292.826 364.800,293.243 364.800 C 293.659 364.800,294.001 364.935,294.003 365.100 C 294.007 365.462,295.947 366.400,296.692 366.400 C 296.985 366.400,297.329 366.670,297.455 367.000 C 297.582 367.330,298.026 367.600,298.443 367.600 C 298.859 367.600,299.200 367.780,299.200 368.000 C 299.200 368.220,299.470 368.400,299.801 368.400 C 300.466 368.400,305.087 370.730,305.886 371.468 C 306.165 371.725,307.024 372.144,307.796 372.399 C 308.568 372.654,309.200 373.028,309.200 373.231 C 309.200 373.434,309.470 373.600,309.800 373.600 C 310.130 373.600,310.400 373.772,310.400 373.982 C 310.400 374.192,311.014 374.479,311.765 374.620 C 312.516 374.761,313.476 375.198,313.899 375.592 C 314.321 375.985,315.237 376.432,315.933 376.585 C 316.630 376.738,317.200 377.029,317.200 377.232 C 317.200 377.434,317.470 377.600,317.800 377.600 C 318.130 377.600,318.400 377.777,318.400 377.992 C 318.400 378.208,318.850 378.498,319.400 378.636 C 319.950 378.774,320.400 379.047,320.400 379.243 C 320.400 379.440,320.670 379.600,321.000 379.600 C 321.330 379.600,321.600 379.780,321.600 380.000 C 321.600 380.220,322.230 380.400,323.000 380.400 C 324.133 380.400,324.400 380.248,324.400 379.600 C 324.400 379.160,324.220 378.800,324.000 378.800 C 323.780 378.800,323.600 377.900,323.600 376.800 C 323.600 375.700,323.446 374.800,323.258 374.800 C 323.069 374.800,322.795 373.361,322.648 371.602 C 322.502 369.843,322.206 367.941,321.991 367.376 C 321.776 366.810,321.600 365.766,321.600 365.054 C 321.600 364.342,321.375 363.518,321.100 363.221 C 320.700 362.790,320.700 362.739,321.100 362.965 C 321.375 363.120,321.600 363.057,321.600 362.824 C 321.600 362.591,321.446 362.400,321.257 362.400 C 321.069 362.400,320.800 361.185,320.659 359.700 C 320.518 358.215,320.298 356.550,320.169 356.000 C 320.040 355.450,319.837 354.148,319.717 353.107 C 319.597 352.066,319.368 351.296,319.207 351.396 C 318.957 351.550,318.511 348.173,318.270 344.300 C 318.233 343.695,318.066 343.200,317.901 343.200 C 317.735 343.200,317.597 342.255,317.594 341.100 C 317.590 339.817,317.458 339.205,317.253 339.528 C 317.053 339.844,316.805 338.400,316.636 335.928 C 316.480 333.658,316.184 331.629,315.977 331.420 C 315.769 331.211,315.600 330.446,315.600 329.720 C 315.600 328.994,315.454 328.400,315.275 328.400 C 315.096 328.400,314.906 327.545,314.853 326.500 C 314.799 325.455,314.615 323.970,314.444 323.200 C 314.272 322.430,314.198 321.305,314.279 320.700 C 314.361 320.095,314.241 319.600,314.014 319.600 C 313.786 319.600,313.600 319.138,313.600 318.574 C 313.600 318.009,313.414 317.199,313.186 316.774 C 312.877 316.196,312.902 315.998,313.286 315.994 C 313.639 315.990,313.662 315.896,313.359 315.694 C 313.116 315.532,312.790 313.964,312.634 312.208 C 312.478 310.453,312.222 308.923,312.066 308.808 C 311.910 308.694,311.724 307.970,311.651 307.200 C 311.579 306.430,311.380 305.530,311.209 305.200 C 311.038 304.870,310.767 303.167,310.607 301.415 C 310.447 299.664,310.158 297.816,309.965 297.308 C 309.772 296.800,309.582 295.489,309.544 294.393 C 309.505 293.297,309.348 292.400,309.194 292.400 C 308.950 292.400,308.369 288.190,308.274 285.726 C 308.255 285.245,308.096 284.941,307.920 285.049 C 307.744 285.158,307.600 284.326,307.600 283.200 C 307.600 282.074,307.443 281.250,307.251 281.368 C 306.958 281.550,306.155 275.257,306.273 273.700 C 306.294 273.425,306.151 273.200,305.956 273.200 C 305.760 273.200,305.600 272.300,305.600 271.200 C 305.600 270.100,305.441 269.200,305.248 269.200 C 305.054 269.200,304.767 267.490,304.610 265.399 C 304.453 263.309,304.179 261.689,304.001 261.799 C 303.823 261.909,303.581 261.145,303.465 260.100 C 303.348 259.055,303.044 256.940,302.789 255.400 C 302.535 253.860,302.324 251.925,302.320 251.100 C 302.316 250.275,302.153 249.600,301.957 249.600 C 301.761 249.600,301.600 248.700,301.600 247.600 C 301.600 246.500,301.420 245.600,301.200 245.600 C 300.980 245.600,300.800 244.880,300.800 244.000 C 300.800 243.120,300.980 242.400,301.200 242.400 C 301.420 242.400,301.600 242.171,301.600 241.890 C 301.600 241.256,305.039 237.973,305.364 238.297 C 305.494 238.427,305.600 238.257,305.600 237.918 C 305.600 237.580,306.216 236.881,306.970 236.365 C 307.723 235.848,308.253 235.285,308.146 235.113 C 308.040 234.941,308.131 234.800,308.349 234.800 C 308.720 234.800,312.350 231.274,316.337 227.042 C 317.292 226.028,318.192 225.270,318.337 225.357 C 318.482 225.445,318.832 225.265,319.116 224.958 C 319.399 224.651,319.499 224.400,319.338 224.400 C 319.177 224.400,319.665 223.938,320.422 223.372 C 321.180 222.807,321.755 222.177,321.700 221.972 C 321.645 221.768,321.825 221.645,322.100 221.700 C 322.375 221.755,322.561 221.593,322.513 221.340 C 322.466 221.087,322.859 220.772,323.387 220.639 C 323.915 220.507,324.456 220.055,324.589 219.635 C 324.722 219.215,325.280 218.578,325.828 218.218 C 326.377 217.859,326.719 217.393,326.589 217.182 C 326.459 216.972,326.633 216.800,326.976 216.800 C 327.319 216.800,327.600 216.530,327.600 216.200 C 327.600 215.870,327.794 215.600,328.031 215.600 C 328.268 215.600,329.182 214.835,330.061 213.900 C 330.940 212.965,331.826 212.245,332.030 212.300 C 332.233 212.355,332.355 212.241,332.300 212.048 C 332.220 211.765,334.249 209.684,338.110 206.088 C 338.280 205.930,339.517 204.670,340.858 203.288 C 342.199 201.907,343.635 200.595,344.048 200.374 C 344.462 200.153,344.800 199.727,344.800 199.429 C 344.800 198.984,345.886 198.238,346.314 198.388 C 346.550 198.471,347.455 197.374,347.713 196.691 C 347.861 196.301,348.301 195.861,348.691 195.713 C 349.546 195.390,350.074 194.881,352.077 192.457 C 352.921 191.436,353.757 190.600,353.935 190.600 C 354.383 190.600,355.381 189.556,355.951 188.492 C 356.213 188.001,356.602 187.600,356.815 187.600 C 357.028 187.600,360.137 184.630,363.723 181.000 C 367.309 177.370,370.469 174.400,370.745 174.400 C 371.021 174.400,371.165 174.265,371.066 174.100 C 370.966 173.935,371.135 173.568,371.442 173.284 C 371.749 173.001,372.000 172.899,372.000 173.060 C 372.000 173.220,372.367 172.957,372.816 172.475 C 373.264 171.994,373.815 171.600,374.039 171.600 C 374.264 171.600,374.344 171.433,374.218 171.229 C 374.092 171.025,374.375 170.735,374.847 170.585 C 375.521 170.371,375.587 170.237,375.153 169.962 C 374.736 169.698,374.810 169.611,375.453 169.606 C 375.977 169.602,376.390 169.280,376.524 168.770 C 376.643 168.314,377.097 167.847,377.533 167.733 C 377.969 167.619,378.426 167.146,378.547 166.680 C 378.669 166.215,378.887 165.954,379.032 166.098 C 379.353 166.420,380.146 165.661,380.520 164.675 C 380.678 164.255,380.990 164.070,381.259 164.236 C 381.531 164.404,381.616 164.350,381.465 164.106 C 381.323 163.876,381.700 163.365,382.303 162.970 C 383.575 162.139,384.576 161.200,384.191 161.200 C 384.045 161.200,384.584 160.615,385.389 159.900 C 387.052 158.423,393.073 152.469,395.251 150.147 C 396.941 148.346,398.400 147.100,398.400 147.458 C 398.400 147.595,398.760 147.250,399.200 146.691 C 400.147 145.488,400.241 144.400,399.400 144.400 C 399.070 144.400,398.800 144.265,398.800 144.099 C 398.800 143.934,398.305 143.782,397.700 143.761 C 397.095 143.741,395.700 143.608,394.600 143.465 C 393.500 143.322,391.925 143.167,391.100 143.121 C 390.275 143.074,389.600 142.893,389.600 142.718 C 389.600 142.543,388.599 142.400,387.376 142.400 C 386.006 142.400,385.247 142.248,385.398 142.003 C 385.537 141.779,385.241 141.628,384.722 141.657 C 383.072 141.748,376.611 141.103,376.200 140.806 C 375.980 140.647,374.734 140.480,373.430 140.435 C 372.127 140.390,370.769 140.197,370.413 140.007 C 370.057 139.816,368.018 139.532,365.883 139.375 C 363.747 139.219,362.000 138.935,362.000 138.745 C 362.000 138.555,360.920 138.400,359.600 138.400 C 358.280 138.400,357.200 138.227,357.200 138.016 C 357.200 137.805,356.705 137.634,356.100 137.637 C 353.356 137.649,348.437 137.064,348.631 136.749 C 348.750 136.557,347.877 136.400,346.690 136.400 C 345.504 136.400,344.414 136.281,344.269 136.135 C 344.123 135.990,343.418 135.827,342.702 135.774 C 337.998 135.425,334.800 135.047,334.800 134.841 C 334.800 134.708,333.865 134.544,332.721 134.475 C 331.578 134.406,330.456 134.235,330.228 134.094 C 330.001 133.953,329.541 133.811,329.207 133.779 C 328.873 133.747,327.070 133.584,325.200 133.419 C 323.330 133.253,321.620 132.985,321.400 132.823 C 321.180 132.661,320.010 132.485,318.800 132.432 C 317.590 132.380,316.540 132.171,316.467 131.968 C 316.393 131.766,316.158 131.600,315.943 131.600 C 315.728 131.600,315.681 131.808,315.838 132.062 C 316.034 132.378,315.947 132.413,315.562 132.173 C 314.840 131.723,314.434 131.653,310.700 131.341 C 308.995 131.198,307.600 130.928,307.600 130.741 C 307.600 130.553,307.409 130.400,307.176 130.400 C 306.943 130.400,306.880 130.625,307.035 130.900 C 307.261 131.300,307.210 131.300,306.779 130.900 C 306.482 130.625,305.477 130.400,304.544 130.400 C 303.611 130.400,302.735 130.218,302.597 129.996 C 302.460 129.773,301.864 129.602,301.274 129.615 C 299.138 129.663,293.225 129.083,293.375 128.840 C 293.460 128.703,292.513 128.536,291.271 128.468 C 290.029 128.400,288.920 128.221,288.806 128.072 C 288.693 127.922,288.150 127.773,287.600 127.739 C 285.429 127.607,280.946 127.119,280.000 126.911 C 279.450 126.790,278.055 126.609,276.899 126.509 C 275.555 126.392,274.893 126.173,275.061 125.901 C 275.205 125.668,275.161 125.573,274.962 125.691 C 274.763 125.809,273.520 125.756,272.200 125.572 C 270.880 125.388,268.855 125.198,267.700 125.150 C 266.545 125.102,265.600 124.951,265.600 124.813 C 265.600 124.676,264.956 124.520,264.168 124.467 C 262.572 124.360,260.469 122.459,261.336 121.908 C 261.652 121.707,261.604 121.610,261.187 121.606 C 260.819 121.602,260.540 121.187,260.489 120.565 C 260.442 119.996,259.998 119.173,259.502 118.735 C 259.006 118.297,258.817 118.049,259.083 118.183 C 259.413 118.349,259.382 118.073,258.986 117.313 C 258.666 116.701,258.404 115.964,258.402 115.676 C 258.401 115.388,258.220 115.264,258.000 115.400 C 257.780 115.536,257.600 115.392,257.600 115.080 C 257.600 114.768,257.069 113.518,256.421 112.302 C 255.772 111.087,255.367 109.953,255.521 109.782 C 255.674 109.611,255.606 109.582,255.369 109.717 C 254.951 109.955,253.467 107.157,253.467 106.132 C 253.467 105.859,253.336 105.716,253.176 105.815 C 252.883 105.996,252.204 104.082,252.344 103.470 C 252.386 103.289,252.235 103.255,252.010 103.394 C 251.784 103.533,251.600 103.367,251.600 103.024 C 251.600 102.681,251.409 102.400,251.176 102.400 C 250.943 102.400,250.846 102.249,250.960 102.065 C 251.073 101.881,250.732 100.914,250.200 99.915 C 249.668 98.917,249.346 97.987,249.483 97.850 C 249.621 97.712,249.538 97.600,249.298 97.600 C 249.059 97.600,248.745 97.060,248.600 96.400 C 248.455 95.740,248.171 95.200,247.968 95.200 C 247.766 95.200,247.600 94.917,247.600 94.571 C 247.600 94.226,247.330 93.673,247.000 93.343 C 246.670 93.013,246.400 92.396,246.400 91.971 C 246.400 91.547,246.220 91.200,246.000 91.200 C 245.780 91.200,245.600 90.930,245.600 90.600 C 245.600 90.270,245.420 90.000,245.200 90.000 C 244.980 90.000,244.800 89.682,244.800 89.293 C 244.800 88.904,244.374 87.959,243.854 87.193 C 243.333 86.427,242.779 85.213,242.621 84.497 C 242.464 83.780,242.170 83.295,241.967 83.420 C 241.765 83.545,241.600 83.187,241.600 82.624 C 241.600 82.061,241.420 81.600,241.200 81.600 C 240.980 81.600,240.800 81.240,240.800 80.800 C 240.800 80.360,240.620 80.000,240.400 80.000 C 240.180 80.000,240.000 79.634,240.000 79.187 C 240.000 78.741,239.715 78.265,239.366 78.132 C 238.856 77.936,238.837 77.823,239.266 77.550 C 239.592 77.344,239.623 77.210,239.347 77.206 C 239.097 77.203,238.788 76.885,238.658 76.500 C 238.529 76.115,238.266 75.530,238.074 75.200 C 237.193 73.687,236.800 72.764,236.800 72.205 C 236.800 71.872,236.605 71.600,236.367 71.600 C 236.128 71.600,236.003 71.392,236.087 71.139 C 236.172 70.885,235.827 70.263,235.320 69.757 C 234.814 69.251,234.400 68.452,234.400 67.981 C 234.400 67.511,234.040 66.669,233.600 66.109 C 233.160 65.550,232.800 64.778,232.800 64.395 C 232.800 64.012,232.530 63.474,232.200 63.200 C 231.870 62.926,231.600 62.353,231.600 61.927 C 231.600 61.501,231.442 61.250,231.250 61.369 C 231.057 61.488,230.792 60.912,230.661 60.089 C 230.528 59.257,230.061 58.332,229.611 58.008 C 229.165 57.686,228.800 57.116,228.800 56.740 C 228.800 56.365,228.532 55.789,228.204 55.461 C 227.752 55.009,227.727 54.816,228.104 54.664 C 228.496 54.505,228.496 54.457,228.100 54.432 C 227.825 54.414,227.600 54.130,227.600 53.800 C 227.600 53.470,227.420 53.200,227.200 53.200 C 226.980 53.200,226.800 52.929,226.800 52.599 C 226.800 51.783,225.370 49.163,225.082 49.451 C 224.955 49.578,224.730 49.033,224.581 48.241 C 224.433 47.448,224.151 46.800,223.955 46.800 C 223.760 46.800,223.600 46.455,223.600 46.033 C 223.600 45.612,223.416 45.205,223.191 45.130 C 222.966 45.055,222.690 44.486,222.578 43.866 C 222.465 43.245,222.064 42.406,221.687 42.000 C 221.309 41.595,220.645 40.349,220.212 39.232 C 219.779 38.114,219.284 37.200,219.112 37.200 C 218.940 37.200,218.800 36.913,218.800 36.562 C 218.800 35.941,217.652 33.602,217.150 33.200 C 217.013 33.090,216.774 32.415,216.618 31.700 C 216.463 30.985,216.171 30.400,215.968 30.400 C 215.766 30.400,215.600 30.130,215.600 29.800 C 215.600 29.470,215.420 29.200,215.200 29.200 C 214.980 29.200,214.800 28.763,214.800 28.229 C 214.800 27.694,214.530 26.987,214.200 26.657 C 213.870 26.327,213.600 25.879,213.600 25.661 C 213.600 25.443,213.338 24.755,213.017 24.132 C 212.697 23.510,212.203 22.415,211.920 21.700 C 211.636 20.985,211.269 20.400,211.102 20.400 C 210.936 20.400,210.800 20.130,210.800 19.800 C 210.800 19.470,210.609 19.200,210.376 19.200 C 210.143 19.200,210.063 19.022,210.198 18.803 C 210.333 18.585,209.884 17.594,209.200 16.600 C 208.516 15.606,208.060 14.627,208.185 14.424 C 208.311 14.221,208.036 13.790,207.574 13.467 C 207.045 13.096,206.653 12.273,206.515 11.239 C 206.370 10.160,206.093 9.600,205.705 9.600 C 205.336 9.600,205.204 9.367,205.353 8.979 C 205.484 8.638,205.428 8.459,205.228 8.583 C 204.884 8.795,204.151 6.571,204.334 5.870 C 204.381 5.689,204.255 5.642,204.054 5.767 C 203.712 5.978,202.402 3.695,202.243 2.609 C 201.885 0.176,199.700 -0.625,198.400 1.200 " stroke="none" fill="#949494" fill-rule="evenodd"></path></g></svg>