<svg id="svg" version="1.1" xmlns="http://www.w3.org/2000/svg" xmlns:xlink="http://www.w3.org/1999/xlink" width="400" height="400" viewBox="0, 0, 400,400"><g id="svgg"><path id="path0" d="M199.200 0.600 C 199.200 0.930,199.020 1.200,198.800 1.200 C 198.580 1.200,198.400 1.487,198.400 1.838 C 198.400 2.455,197.256 4.792,196.754 5.200 C 196.435 5.459,195.818 7.311,195.921 7.700 C 195.964 7.865,195.865 8.002,195.700 8.004 C 195.535 8.006,195.045 8.816,194.610 9.804 C 194.176 10.792,193.681 11.600,193.510 11.600 C 193.340 11.600,193.200 11.960,193.200 12.400 C 193.200 12.840,193.020 13.200,192.800 13.200 C 192.580 13.200,192.400 13.641,192.400 14.180 C 192.400 14.719,192.085 15.344,191.700 15.568 C 191.315 15.792,191.145 15.981,191.323 15.988 C 191.604 15.998,191.289 16.743,189.963 19.200 C 189.354 20.329,186.118 26.998,185.402 28.600 C 185.009 29.480,184.353 30.678,183.944 31.262 C 183.535 31.846,183.200 32.621,183.200 32.985 C 183.200 33.389,183.017 33.534,182.732 33.358 C 182.417 33.164,182.348 33.287,182.519 33.734 C 182.660 34.100,182.601 34.400,182.387 34.400 C 182.174 34.400,182.000 34.670,182.000 35.000 C 182.000 35.330,181.809 35.600,181.576 35.600 C 181.343 35.600,181.255 35.765,181.380 35.968 C 181.505 36.170,181.291 36.652,180.904 37.039 C 180.517 37.426,180.258 37.756,180.328 37.771 C 180.399 37.787,180.258 38.340,180.016 39.000 C 179.774 39.660,179.497 40.425,179.401 40.700 C 179.304 40.975,179.039 41.200,178.813 41.200 C 178.586 41.200,178.400 41.547,178.400 41.971 C 178.400 42.396,178.117 43.026,177.771 43.371 C 177.426 43.717,177.266 44.000,177.417 44.000 C 177.568 44.000,177.401 44.444,177.046 44.986 C 176.691 45.528,176.400 46.248,176.400 46.586 C 176.400 46.924,176.190 47.200,175.933 47.200 C 175.677 47.200,175.579 47.312,175.717 47.450 C 175.854 47.587,175.524 48.531,174.983 49.547 C 174.442 50.563,174.000 51.620,174.000 51.897 C 174.000 52.174,173.820 52.400,173.600 52.400 C 173.380 52.400,173.196 52.715,173.191 53.100 C 173.186 53.485,172.830 54.250,172.400 54.800 C 171.970 55.350,171.614 55.935,171.609 56.101 C 171.592 56.670,165.864 68.200,165.532 68.333 C 165.349 68.407,165.200 68.655,165.200 68.884 C 165.200 69.536,160.322 79.200,159.993 79.200 C 159.832 79.200,159.589 79.755,159.453 80.434 C 159.318 81.112,158.801 82.237,158.305 82.934 C 157.809 83.630,157.474 84.200,157.560 84.200 C 157.647 84.200,157.589 84.605,157.432 85.100 C 157.275 85.595,156.999 86.000,156.820 86.000 C 156.497 86.000,155.873 87.519,155.957 88.100 C 155.981 88.265,155.820 88.400,155.600 88.400 C 155.380 88.400,155.200 88.760,155.200 89.200 C 155.200 89.640,155.020 90.000,154.800 90.000 C 154.580 90.000,154.400 90.290,154.400 90.644 C 154.400 90.998,153.866 92.303,153.214 93.544 C 152.561 94.785,151.846 96.295,151.624 96.900 C 151.402 97.505,151.035 98.000,150.810 98.000 C 150.584 98.000,150.400 98.360,150.400 98.800 C 150.400 99.240,150.230 99.600,150.023 99.600 C 149.816 99.600,149.715 99.960,149.800 100.400 C 149.885 100.840,149.784 101.200,149.577 101.200 C 149.370 101.200,149.200 101.470,149.200 101.800 C 149.200 102.130,149.020 102.400,148.800 102.400 C 148.580 102.400,148.429 102.535,148.464 102.700 C 148.552 103.117,148.053 104.412,147.346 105.600 C 147.018 106.150,146.651 106.915,146.529 107.300 C 146.407 107.685,146.156 108.000,145.971 108.000 C 145.787 108.000,145.518 108.630,145.374 109.400 C 145.229 110.170,144.951 110.800,144.755 110.800 C 144.560 110.800,144.400 111.070,144.400 111.400 C 144.400 111.730,144.201 112.000,143.957 112.000 C 143.714 112.000,143.618 112.270,143.745 112.600 C 143.871 112.930,143.801 113.200,143.587 113.200 C 143.374 113.200,143.200 113.470,143.200 113.800 C 143.200 114.130,143.020 114.400,142.800 114.400 C 142.580 114.400,142.400 114.664,142.400 114.986 C 142.400 115.710,141.111 118.551,140.700 118.733 C 140.535 118.807,140.400 119.212,140.400 119.633 C 140.400 120.055,140.209 120.400,139.976 120.400 C 139.743 120.400,139.664 120.580,139.800 120.800 C 139.936 121.020,139.827 121.200,139.557 121.200 C 139.287 121.200,139.187 121.320,139.334 121.468 C 139.481 121.615,139.344 122.020,139.029 122.368 C 138.472 122.984,138.400 123.170,138.400 124.000 C 138.400 124.220,137.896 124.400,137.280 124.400 C 136.664 124.400,135.988 124.572,135.777 124.783 C 135.567 124.993,134.181 125.210,132.697 125.265 C 131.214 125.320,130.000 125.463,130.000 125.582 C 130.001 125.702,129.191 125.773,128.200 125.740 C 127.210 125.707,126.400 125.797,126.400 125.940 C 126.400 126.083,125.581 126.253,124.580 126.317 C 123.580 126.382,122.333 126.597,121.810 126.796 C 121.287 126.995,119.901 127.194,118.730 127.239 C 117.558 127.284,116.420 127.428,116.200 127.560 C 115.980 127.692,115.350 127.813,114.800 127.830 C 114.250 127.846,112.810 128.012,111.600 128.199 C 110.390 128.386,109.040 128.567,108.600 128.601 C 108.160 128.635,107.530 128.775,107.200 128.911 C 106.481 129.208,103.004 129.603,100.101 129.717 C 98.947 129.763,98.002 129.897,98.001 130.016 C 98.000 130.209,93.591 130.981,89.961 131.422 C 89.213 131.514,87.520 131.760,86.200 131.970 C 84.880 132.179,83.076 132.416,82.191 132.496 C 81.306 132.576,80.384 132.763,80.142 132.912 C 79.901 133.061,78.676 133.226,77.421 133.279 C 76.166 133.331,75.066 133.493,74.976 133.639 C 74.886 133.784,74.001 133.812,73.010 133.700 C 72.002 133.586,70.979 133.685,70.691 133.924 C 70.408 134.159,69.155 134.393,67.906 134.444 C 66.658 134.494,65.729 134.685,65.842 134.868 C 66.030 135.172,63.578 135.392,61.900 135.221 C 61.515 135.182,61.200 135.302,61.200 135.489 C 61.200 135.676,60.885 135.841,60.500 135.856 C 60.115 135.870,58.630 136.024,57.200 136.196 C 55.770 136.368,54.150 136.532,53.600 136.561 C 53.050 136.589,52.408 136.734,52.174 136.884 C 51.940 137.033,50.860 137.194,49.774 137.240 C 48.688 137.287,47.620 137.426,47.400 137.551 C 47.180 137.675,46.460 137.807,45.800 137.844 C 45.140 137.882,43.006 138.201,41.057 138.554 C 39.108 138.908,36.678 139.223,35.657 139.254 C 34.636 139.286,33.573 139.490,33.296 139.708 C 33.019 139.926,32.074 140.008,31.196 139.890 C 30.318 139.772,29.499 139.839,29.376 140.038 C 29.253 140.237,28.299 140.400,27.256 140.400 C 26.213 140.400,25.189 140.567,24.980 140.771 C 24.576 141.166,20.591 141.664,17.600 141.694 C 16.610 141.703,15.708 141.853,15.595 142.026 C 15.482 142.199,14.282 142.396,12.928 142.463 C 11.575 142.530,10.553 142.723,10.657 142.893 C 10.762 143.062,10.162 143.215,9.324 143.233 C 8.486 143.252,7.440 143.329,7.000 143.404 C 6.560 143.480,5.318 143.634,4.240 143.747 C 2.114 143.970,0.000 144.704,0.000 145.220 C -0.000 145.621,0.556 146.181,2.919 148.155 C 3.942 149.010,4.708 149.825,4.620 149.967 C 4.532 150.110,5.077 150.648,5.830 151.165 C 6.584 151.681,7.200 152.271,7.200 152.475 C 7.200 152.680,7.380 152.736,7.600 152.600 C 7.820 152.464,8.000 152.537,8.000 152.763 C 8.000 153.316,10.262 155.600,10.810 155.600 C 11.051 155.600,11.147 155.762,11.024 155.961 C 10.901 156.160,11.386 156.697,12.100 157.154 C 12.815 157.612,13.262 157.990,13.093 157.993 C 12.667 158.003,16.460 161.600,16.895 161.600 C 17.089 161.600,17.136 161.780,17.000 162.000 C 16.864 162.220,16.972 162.400,17.239 162.400 C 17.506 162.400,19.429 164.110,21.513 166.200 C 23.596 168.290,25.488 170.000,25.717 170.000 C 25.946 170.000,26.031 170.102,25.906 170.227 C 25.781 170.352,26.876 171.556,28.339 172.903 C 29.803 174.250,31.153 175.657,31.341 176.030 C 31.528 176.403,32.093 176.929,32.597 177.198 C 33.100 177.468,33.742 178.118,34.024 178.644 C 34.305 179.170,34.711 179.600,34.926 179.600 C 35.564 179.600,39.996 184.268,39.685 184.612 C 39.528 184.786,39.614 184.806,39.875 184.656 C 40.155 184.495,40.878 185.041,41.642 185.992 C 42.352 186.876,43.118 187.600,43.344 187.600 C 43.892 187.600,47.969 191.898,47.687 192.179 C 47.566 192.301,47.664 192.400,47.906 192.400 C 48.148 192.400,50.878 194.920,53.973 198.001 C 57.068 201.081,59.600 203.520,59.600 203.421 C 59.600 203.321,60.230 203.888,61.000 204.681 C 61.770 205.474,62.400 206.286,62.400 206.485 C 62.400 206.684,62.554 206.752,62.742 206.636 C 62.929 206.520,63.285 206.869,63.533 207.413 C 63.780 207.956,64.175 208.400,64.409 208.400 C 64.922 208.400,69.200 212.718,69.200 213.235 C 69.200 213.436,69.388 213.600,69.617 213.600 C 70.051 213.600,71.612 214.975,75.637 218.900 C 76.934 220.165,77.872 221.200,77.720 221.200 C 77.569 221.200,77.990 221.605,78.657 222.100 C 79.323 222.595,82.351 225.475,85.385 228.500 C 88.420 231.525,91.089 234.000,91.318 234.000 C 91.546 234.000,91.612 234.121,91.463 234.270 C 91.315 234.418,91.690 234.867,92.297 235.267 C 92.904 235.667,93.258 235.996,93.084 235.997 C 92.911 235.999,93.001 236.251,93.284 236.558 C 93.568 236.865,93.908 237.051,94.040 236.972 C 94.172 236.892,94.517 237.271,94.807 237.814 C 95.098 238.356,95.495 238.800,95.691 238.800 C 98.062 238.800,100.033 243.399,98.948 246.400 C 98.828 246.730,98.651 247.630,98.553 248.400 C 98.455 249.170,98.216 250.381,98.022 251.090 C 97.828 251.800,97.765 252.746,97.882 253.192 C 97.999 253.639,97.927 254.228,97.722 254.502 C 97.517 254.776,97.298 255.720,97.236 256.600 C 97.173 257.480,97.010 258.380,96.872 258.600 C 96.734 258.820,96.576 259.715,96.520 260.588 C 96.464 261.462,96.298 262.452,96.152 262.788 C 96.005 263.125,95.923 263.877,95.969 264.460 C 96.014 265.044,95.860 265.639,95.626 265.784 C 95.392 265.929,95.200 266.937,95.200 268.024 C 95.200 269.111,95.044 270.000,94.854 270.000 C 94.664 270.000,94.515 270.495,94.523 271.100 C 94.532 271.705,94.412 272.920,94.257 273.800 C 93.751 276.675,93.520 278.174,93.333 279.800 C 93.232 280.680,93.046 281.670,92.920 282.000 C 92.793 282.330,92.613 283.320,92.518 284.200 C 92.424 285.080,92.220 285.846,92.066 285.902 C 91.912 285.959,91.816 286.634,91.852 287.404 C 91.888 288.174,91.754 288.905,91.552 289.029 C 91.351 289.154,91.260 289.378,91.350 289.528 C 91.439 289.677,91.353 290.700,91.158 291.800 C 90.963 292.900,90.715 294.598,90.608 295.573 C 90.500 296.548,90.274 297.448,90.106 297.573 C 89.938 297.698,89.800 298.565,89.800 299.500 C 89.800 300.435,89.694 301.200,89.563 301.200 C 89.433 301.200,89.294 302.132,89.254 303.271 C 89.213 304.410,89.029 305.535,88.844 305.771 C 88.660 306.007,88.381 307.280,88.226 308.600 C 87.805 312.187,87.772 312.361,87.475 312.659 C 87.324 312.810,87.200 313.803,87.200 314.867 C 87.200 315.930,87.053 316.800,86.873 316.800 C 86.693 316.800,86.533 317.295,86.517 317.900 C 86.502 318.505,86.367 319.720,86.218 320.600 C 86.069 321.480,85.888 322.650,85.816 323.200 C 85.569 325.079,85.155 327.399,84.530 330.400 C 84.186 332.050,83.853 333.850,83.791 334.400 C 83.484 337.094,83.110 339.459,82.905 340.000 C 82.780 340.330,82.619 341.315,82.548 342.188 C 82.476 343.062,82.288 344.052,82.130 344.388 C 81.972 344.725,81.802 345.450,81.753 346.000 C 81.488 348.982,81.149 351.470,80.935 352.000 C 80.660 352.680,80.095 355.510,79.816 357.600 C 79.714 358.370,79.521 359.810,79.389 360.800 C 79.257 361.790,79.042 362.870,78.910 363.200 C 78.778 363.530,78.627 364.250,78.573 364.800 C 78.519 365.350,78.347 366.700,78.190 367.800 C 78.034 368.900,77.903 370.070,77.899 370.400 C 77.894 370.730,77.765 371.180,77.611 371.400 C 77.457 371.620,77.292 372.610,77.245 373.600 C 77.198 374.590,76.988 375.460,76.777 375.534 C 76.567 375.608,76.466 375.788,76.554 375.934 C 76.641 376.080,76.580 377.055,76.419 378.100 C 76.251 379.194,76.282 380.000,76.492 380.000 C 77.194 380.000,86.000 375.518,86.000 375.160 C 86.000 374.962,86.315 374.794,86.700 374.787 C 87.085 374.780,87.749 374.510,88.176 374.187 C 88.604 373.864,89.309 373.600,89.743 373.600 C 90.178 373.600,90.418 373.485,90.278 373.344 C 90.137 373.204,90.782 372.719,91.711 372.267 C 92.640 371.815,93.510 371.284,93.645 371.088 C 93.779 370.892,93.959 370.784,94.045 370.848 C 94.218 370.977,99.685 368.390,100.000 368.029 C 100.432 367.535,104.430 365.600,105.021 365.600 C 105.365 365.600,105.548 365.439,105.426 365.243 C 105.190 364.860,107.045 364.209,107.940 364.362 C 108.237 364.412,108.367 364.270,108.229 364.047 C 107.962 363.615,109.132 362.844,110.433 362.594 C 110.862 362.511,111.489 362.168,111.825 361.833 C 112.161 361.497,113.192 360.861,114.118 360.421 C 115.043 359.980,116.070 359.461,116.400 359.267 C 118.133 358.247,119.593 357.600,120.162 357.600 C 120.513 357.600,120.800 357.434,120.800 357.232 C 120.800 357.029,121.342 356.745,122.003 356.599 C 122.665 356.454,123.105 356.170,122.980 355.967 C 122.855 355.765,123.101 355.600,123.527 355.600 C 123.953 355.600,124.526 355.330,124.800 355.000 C 125.074 354.670,125.636 354.400,126.049 354.400 C 126.462 354.400,126.800 354.220,126.800 354.000 C 126.800 353.780,127.055 353.600,127.367 353.600 C 127.678 353.600,127.993 353.465,128.067 353.300 C 128.140 353.135,130.360 351.920,133.000 350.600 C 135.640 349.280,137.890 348.106,138.000 347.990 C 138.628 347.333,143.135 345.263,143.405 345.508 C 143.583 345.669,143.611 345.594,143.467 345.343 C 143.242 344.948,144.226 344.458,145.308 344.426 C 145.477 344.421,146.006 344.053,146.483 343.608 C 146.960 343.164,147.664 342.800,148.047 342.800 C 148.430 342.800,149.015 342.528,149.348 342.195 C 150.168 341.375,155.066 338.800,155.806 338.800 C 156.133 338.800,156.400 338.632,156.400 338.427 C 156.400 338.077,158.017 337.373,158.355 337.575 C 158.441 337.627,158.621 337.514,158.755 337.325 C 159.183 336.725,161.316 335.489,160.977 336.037 C 160.800 336.323,161.211 336.162,161.890 335.679 C 162.568 335.195,163.321 334.800,163.562 334.800 C 163.803 334.800,164.000 334.632,164.000 334.427 C 164.000 334.222,164.405 333.928,164.900 333.774 C 165.395 333.621,166.295 333.146,166.900 332.720 C 167.505 332.294,168.003 332.093,168.006 332.273 C 168.009 332.453,168.144 332.418,168.306 332.196 C 168.622 331.762,172.803 329.600,173.327 329.600 C 173.501 329.600,174.848 328.820,176.321 327.867 C 177.795 326.914,180.035 325.711,181.300 325.193 C 182.565 324.676,183.600 324.106,183.600 323.926 C 183.600 323.747,183.960 323.600,184.400 323.600 C 184.840 323.600,185.200 323.420,185.200 323.200 C 185.200 322.980,185.560 322.800,186.000 322.800 C 186.440 322.800,186.800 322.620,186.800 322.400 C 186.800 322.180,186.977 322.000,187.194 322.000 C 187.411 322.000,188.466 321.460,189.538 320.800 C 190.611 320.140,191.784 319.600,192.144 319.600 C 192.505 319.600,192.800 319.420,192.800 319.200 C 192.800 318.980,193.171 318.800,193.624 318.800 C 194.077 318.800,194.336 318.620,194.200 318.400 C 194.064 318.180,194.311 318.000,194.748 318.000 C 195.185 318.000,195.784 317.775,196.079 317.500 C 197.058 316.586,199.347 315.437,198.982 316.042 C 198.697 316.517,198.748 316.518,199.323 316.051 C 199.897 315.586,200.103 315.586,200.677 316.051 C 201.252 316.518,201.303 316.517,201.018 316.042 C 200.653 315.437,202.942 316.586,203.921 317.500 C 204.216 317.775,204.815 318.000,205.252 318.000 C 205.689 318.000,205.936 318.180,205.800 318.400 C 205.664 318.620,205.923 318.800,206.376 318.800 C 206.829 318.800,207.200 318.980,207.200 319.200 C 207.200 319.420,207.495 319.600,207.856 319.600 C 208.216 319.600,209.389 320.140,210.462 320.800 C 211.534 321.460,212.589 322.000,212.806 322.000 C 213.023 322.000,213.200 322.180,213.200 322.400 C 213.200 322.620,213.560 322.800,214.000 322.800 C 214.440 322.800,214.800 322.980,214.800 323.200 C 214.800 323.420,215.160 323.600,215.600 323.600 C 216.040 323.600,216.400 323.753,216.400 323.940 C 216.400 324.127,217.493 324.712,218.829 325.240 C 220.164 325.768,221.559 326.480,221.929 326.821 C 222.298 327.163,223.140 327.715,223.800 328.048 C 224.460 328.381,225.360 328.841,225.800 329.071 C 226.240 329.301,227.680 330.008,229.000 330.643 C 230.320 331.277,231.532 331.977,231.694 332.198 C 231.856 332.419,231.991 332.453,231.994 332.273 C 231.997 332.093,232.495 332.294,233.100 332.720 C 233.705 333.146,234.605 333.621,235.100 333.774 C 235.595 333.928,236.000 334.222,236.000 334.427 C 236.000 334.632,236.303 334.800,236.674 334.800 C 237.045 334.800,237.794 335.205,238.339 335.700 C 238.883 336.195,239.188 336.356,239.015 336.059 C 238.685 335.489,240.787 336.683,241.245 337.325 C 241.379 337.514,241.559 337.627,241.645 337.575 C 241.983 337.373,243.600 338.077,243.600 338.427 C 243.600 338.632,243.872 338.800,244.205 338.800 C 244.868 338.800,246.456 339.603,246.845 340.134 C 246.979 340.318,247.159 340.440,247.245 340.406 C 247.616 340.257,249.480 341.185,250.361 341.958 C 250.890 342.421,251.621 342.800,251.986 342.800 C 252.351 342.800,252.998 343.125,253.425 343.522 C 253.851 343.920,254.290 344.265,254.400 344.290 C 256.267 344.709,256.757 344.950,256.533 345.343 C 256.389 345.594,256.417 345.669,256.595 345.508 C 256.865 345.263,261.372 347.333,262.000 347.990 C 262.110 348.106,264.360 349.280,267.000 350.600 C 269.640 351.920,271.860 353.135,271.933 353.300 C 272.007 353.465,272.322 353.600,272.633 353.600 C 272.945 353.600,273.200 353.780,273.200 354.000 C 273.200 354.220,273.462 354.400,273.782 354.400 C 274.102 354.400,275.034 354.855,275.853 355.410 C 276.672 355.966,277.760 356.525,278.271 356.654 C 278.782 356.782,279.200 357.047,279.200 357.243 C 279.200 357.440,279.487 357.600,279.838 357.600 C 280.407 357.600,281.867 358.247,283.600 359.267 C 283.930 359.461,284.957 359.980,285.882 360.421 C 286.808 360.861,287.839 361.497,288.175 361.833 C 288.511 362.168,289.138 362.511,289.567 362.594 C 290.875 362.846,292.037 363.616,291.767 364.053 C 291.623 364.287,291.834 364.433,292.256 364.390 C 293.337 364.282,294.827 364.832,294.572 365.245 C 294.451 365.440,294.791 365.600,295.327 365.600 C 295.863 365.600,296.526 365.870,296.800 366.200 C 297.074 366.530,297.546 366.800,297.849 366.800 C 298.152 366.800,298.400 366.980,298.400 367.200 C 298.400 367.420,298.745 367.600,299.167 367.600 C 299.588 367.600,299.993 367.758,300.067 367.951 C 300.205 368.316,305.129 370.718,305.755 370.727 C 305.951 370.730,306.221 370.892,306.355 371.088 C 306.490 371.284,307.360 371.815,308.289 372.267 C 309.218 372.719,309.863 373.204,309.722 373.344 C 309.582 373.485,309.822 373.600,310.257 373.600 C 310.691 373.600,311.396 373.864,311.824 374.187 C 312.251 374.510,312.915 374.780,313.300 374.787 C 313.685 374.794,314.000 374.961,314.000 375.158 C 314.000 375.355,315.755 376.373,317.900 377.420 C 320.045 378.466,322.285 379.564,322.877 379.860 C 323.677 380.258,324.028 380.278,324.239 379.937 C 324.415 379.652,324.347 379.585,324.062 379.762 C 323.602 380.046,323.507 379.506,323.488 376.514 C 323.483 375.806,323.326 375.322,323.140 375.437 C 322.953 375.553,322.777 374.962,322.749 374.124 C 322.721 373.286,322.617 372.150,322.517 371.600 C 322.418 371.050,322.329 370.060,322.319 369.400 C 322.309 368.740,322.155 368.106,321.975 367.992 C 321.796 367.877,321.593 366.753,321.525 365.493 C 321.456 364.233,321.288 363.202,321.151 363.201 C 320.930 363.200,320.756 362.212,320.200 357.800 C 320.116 357.140,319.883 356.059,319.680 355.397 C 319.477 354.735,319.364 353.700,319.428 353.097 C 319.493 352.494,319.378 352.000,319.173 352.000 C 318.968 352.000,318.800 351.111,318.800 350.024 C 318.800 348.937,318.628 347.941,318.417 347.811 C 318.207 347.680,318.046 347.085,318.060 346.487 C 318.074 345.889,317.956 344.680,317.797 343.800 C 317.639 342.920,317.466 341.930,317.412 341.600 C 317.359 341.270,317.203 340.550,317.064 340.000 C 316.926 339.450,316.730 338.280,316.629 337.400 C 316.434 335.701,316.306 334.953,315.679 331.851 C 315.462 330.780,315.330 329.610,315.386 329.251 C 315.441 328.893,315.355 328.510,315.195 328.400 C 314.871 328.178,314.251 323.739,314.257 321.689 C 314.260 320.866,314.140 320.568,313.937 320.889 C 313.718 321.234,313.596 321.075,313.563 320.400 C 313.438 317.853,313.377 317.372,313.122 316.979 C 312.972 316.747,312.794 315.622,312.725 314.479 C 312.656 313.335,312.491 312.400,312.357 312.400 C 312.223 312.400,312.154 311.684,312.203 310.809 C 312.253 309.935,312.137 309.315,311.946 309.433 C 311.756 309.551,311.573 309.007,311.540 308.224 C 311.446 305.992,311.417 305.813,311.121 305.590 C 310.968 305.474,310.804 304.574,310.756 303.590 C 310.708 302.605,310.543 301.620,310.389 301.400 C 310.235 301.180,310.106 300.730,310.101 300.400 C 310.097 300.070,309.966 298.900,309.810 297.800 C 309.653 296.700,309.481 295.350,309.427 294.800 C 309.373 294.250,309.222 293.530,309.090 293.200 C 308.958 292.870,308.743 291.790,308.611 290.800 C 308.479 289.810,308.286 288.370,308.184 287.600 C 307.905 285.510,307.340 282.680,307.065 282.000 C 306.851 281.470,306.512 278.982,306.247 276.000 C 306.198 275.450,306.018 274.698,305.847 274.329 C 305.677 273.961,305.491 272.971,305.435 272.129 C 305.379 271.288,305.223 270.330,305.090 270.000 C 304.956 269.670,304.751 268.500,304.633 267.400 C 304.356 264.812,304.223 264.013,303.470 260.400 C 302.845 257.399,302.431 255.079,302.184 253.200 C 302.112 252.650,301.934 251.480,301.789 250.600 C 301.643 249.720,301.500 248.550,301.471 248.000 C 301.441 247.450,301.293 246.909,301.142 246.797 C 300.991 246.685,300.819 245.565,300.761 244.308 L 300.655 242.021 303.328 239.427 C 304.797 237.999,306.000 236.937,306.000 237.065 C 306.000 237.193,306.268 237.076,306.596 236.804 C 306.923 236.532,307.093 236.150,306.972 235.955 C 306.851 235.760,306.936 235.600,307.160 235.600 C 307.384 235.600,309.403 233.755,311.648 231.500 C 313.893 229.245,315.894 227.449,316.094 227.510 C 316.295 227.570,316.366 227.468,316.251 227.283 C 316.137 227.097,316.417 226.688,316.875 226.373 C 317.333 226.058,317.908 225.569,318.154 225.286 C 318.735 224.616,326.284 217.037,328.298 215.100 C 329.156 214.275,330.070 213.600,330.329 213.600 C 330.588 213.600,330.800 213.428,330.800 213.218 C 330.800 212.709,332.728 210.800,333.242 210.800 C 333.465 210.800,333.517 210.589,333.358 210.332 C 333.162 210.015,333.289 209.949,333.755 210.127 C 334.133 210.272,334.352 210.247,334.243 210.070 C 334.135 209.894,334.755 208.973,335.623 208.024 C 336.490 207.075,337.200 206.407,337.200 206.539 C 337.200 206.671,340.445 203.543,344.411 199.589 C 348.377 195.635,351.827 192.400,352.077 192.400 C 352.328 192.400,352.427 192.294,352.298 192.165 C 351.920 191.786,356.871 187.199,357.358 187.476 C 357.601 187.615,357.679 187.593,357.531 187.428 C 357.173 187.030,359.570 184.562,360.149 184.733 C 360.397 184.807,360.469 184.736,360.309 184.576 C 360.149 184.416,361.769 182.596,363.909 180.532 C 368.387 176.212,368.025 176.569,370.500 174.045 C 371.545 172.979,372.400 172.157,372.400 172.219 C 372.400 172.280,373.390 171.332,374.600 170.113 C 375.810 168.893,376.800 167.823,376.800 167.735 C 376.800 167.647,377.451 166.996,378.246 166.288 C 379.041 165.579,380.240 164.415,380.910 163.700 C 381.580 162.985,382.380 162.400,382.688 162.400 C 382.996 162.400,383.136 162.220,383.000 162.000 C 382.864 161.780,382.921 161.600,383.126 161.600 C 383.332 161.600,384.345 160.790,385.378 159.800 C 386.412 158.810,387.162 158.000,387.047 158.000 C 386.931 158.000,387.286 157.550,387.836 157.000 C 388.386 156.450,388.943 156.000,389.072 156.000 C 389.202 156.000,389.725 155.550,390.235 155.000 C 390.745 154.450,391.063 154.000,390.943 154.000 C 390.823 154.000,391.420 153.415,392.270 152.700 C 393.121 151.985,394.966 150.275,396.371 148.900 C 397.776 147.525,399.088 146.400,399.286 146.400 C 399.485 146.400,399.536 146.220,399.400 146.000 C 399.264 145.780,399.343 145.600,399.576 145.600 C 399.809 145.600,400.000 145.353,400.000 145.052 C 400.000 144.571,396.967 143.746,394.800 143.638 C 394.470 143.621,393.750 143.531,393.200 143.437 C 392.650 143.343,391.514 143.252,390.676 143.233 C 389.838 143.215,389.238 143.062,389.343 142.893 C 389.447 142.723,388.425 142.530,387.072 142.463 C 385.718 142.396,384.518 142.199,384.405 142.026 C 384.292 141.853,383.390 141.703,382.400 141.694 C 379.409 141.664,375.424 141.166,375.020 140.771 C 374.811 140.567,373.787 140.400,372.744 140.400 C 371.701 140.400,370.747 140.237,370.624 140.038 C 370.501 139.839,369.682 139.772,368.804 139.890 C 367.926 140.008,366.981 139.926,366.704 139.708 C 366.427 139.490,365.364 139.286,364.343 139.254 C 363.322 139.223,360.892 138.908,358.943 138.554 C 356.994 138.201,354.860 137.882,354.200 137.844 C 353.540 137.807,352.820 137.675,352.600 137.551 C 352.380 137.426,351.312 137.287,350.226 137.240 C 349.140 137.194,348.060 137.033,347.826 136.884 C 347.592 136.734,346.950 136.589,346.400 136.561 C 345.850 136.532,344.230 136.368,342.800 136.196 C 341.370 136.024,339.885 135.870,339.500 135.856 C 339.115 135.841,338.800 135.676,338.800 135.489 C 338.800 135.302,338.485 135.182,338.100 135.221 C 336.422 135.392,333.970 135.172,334.158 134.868 C 334.271 134.685,333.342 134.494,332.094 134.444 C 330.845 134.393,329.592 134.159,329.309 133.924 C 329.021 133.685,327.998 133.586,326.990 133.700 C 325.999 133.812,325.114 133.784,325.024 133.639 C 324.934 133.493,323.834 133.331,322.579 133.279 C 321.324 133.226,320.099 133.061,319.858 132.912 C 319.616 132.763,318.694 132.576,317.809 132.496 C 316.924 132.416,315.120 132.179,313.800 131.970 C 312.480 131.760,310.787 131.514,310.039 131.422 C 306.409 130.981,302.000 130.209,301.999 130.016 C 301.998 129.897,301.053 129.763,299.899 129.717 C 296.996 129.603,293.519 129.208,292.800 128.911 C 292.470 128.775,291.840 128.635,291.400 128.601 C 290.960 128.567,289.610 128.386,288.400 128.199 C 287.190 128.012,285.750 127.846,285.200 127.830 C 284.650 127.813,284.020 127.692,283.800 127.560 C 283.580 127.428,282.442 127.284,281.270 127.239 C 280.099 127.194,278.713 126.995,278.190 126.796 C 277.667 126.597,276.420 126.382,275.420 126.317 C 274.419 126.253,273.600 126.083,273.600 125.940 C 273.600 125.797,272.790 125.707,271.800 125.740 C 270.809 125.773,269.999 125.702,270.000 125.582 C 270.000 125.463,268.794 125.320,267.321 125.266 C 265.847 125.211,264.452 125.019,264.221 124.839 C 263.989 124.658,263.326 124.397,262.748 124.259 C 261.819 124.038,260.662 122.446,260.379 121.000 C 260.336 120.780,259.963 120.171,259.550 119.646 C 259.138 119.121,258.800 118.494,258.800 118.252 C 258.800 117.668,256.706 113.471,256.253 113.145 C 256.057 113.004,256.014 112.702,256.155 112.472 C 256.297 112.243,256.243 111.950,256.035 111.822 C 255.828 111.694,254.970 110.196,254.129 108.494 C 253.288 106.792,252.504 105.310,252.387 105.200 C 252.269 105.090,252.183 104.730,252.194 104.400 C 252.206 104.070,251.897 103.451,251.508 103.025 C 251.119 102.598,250.800 102.013,250.800 101.725 C 250.800 101.436,250.599 101.200,250.353 101.200 C 250.108 101.200,249.990 100.880,250.093 100.488 C 250.195 100.097,250.024 99.538,249.712 99.247 C 249.401 98.956,249.246 98.457,249.368 98.138 C 249.491 97.819,249.418 97.665,249.207 97.796 C 248.996 97.926,248.711 97.583,248.572 97.033 C 248.434 96.483,248.071 95.825,247.765 95.571 C 247.459 95.317,247.307 94.950,247.428 94.755 C 247.549 94.560,247.457 94.400,247.224 94.400 C 246.991 94.400,246.826 94.265,246.857 94.100 C 246.963 93.545,245.925 91.200,245.573 91.200 C 245.382 91.200,245.329 90.930,245.455 90.600 C 245.582 90.270,245.498 90.000,245.270 90.000 C 244.885 90.000,244.086 88.235,244.441 88.171 C 244.529 88.156,244.275 87.818,243.877 87.420 C 243.479 87.022,243.252 86.441,243.372 86.128 C 243.493 85.815,243.433 85.656,243.241 85.775 C 242.944 85.958,242.472 84.955,242.469 84.136 C 242.469 84.000,242.318 83.779,242.134 83.645 C 241.548 83.216,240.581 81.835,241.073 82.130 C 241.373 82.310,241.327 81.975,240.947 81.215 C 240.618 80.555,240.181 79.912,239.975 79.784 C 239.769 79.657,239.600 79.203,239.600 78.776 C 239.600 78.349,239.420 78.000,239.200 78.000 C 238.980 78.000,238.800 77.640,238.800 77.200 C 238.800 76.760,238.609 76.400,238.376 76.400 C 238.143 76.400,238.047 76.247,238.163 76.061 C 238.278 75.874,238.012 75.334,237.571 74.861 C 237.130 74.387,236.888 74.000,237.033 74.000 C 237.179 74.000,237.097 73.758,236.852 73.463 C 236.607 73.168,236.525 72.808,236.670 72.663 C 236.815 72.518,236.693 72.400,236.400 72.400 C 236.107 72.400,235.981 72.285,236.122 72.145 C 236.262 72.005,236.053 71.420,235.658 70.845 C 234.379 68.982,233.321 66.614,233.515 66.044 C 233.630 65.706,233.527 65.598,233.252 65.768 C 232.972 65.941,232.800 65.734,232.800 65.224 C 232.800 64.771,232.640 64.400,232.443 64.400 C 232.084 64.400,231.404 62.484,231.544 61.870 C 231.586 61.689,231.455 61.643,231.253 61.768 C 230.913 61.977,230.185 60.181,230.334 59.500 C 230.370 59.335,230.257 59.200,230.082 59.200 C 229.907 59.200,229.430 58.390,229.022 57.400 C 228.613 56.410,228.127 55.600,227.940 55.600 C 227.753 55.600,227.600 55.120,227.600 54.533 C 227.600 53.947,227.484 53.583,227.342 53.724 C 227.053 54.014,225.011 50.094,224.602 48.464 C 224.456 47.883,224.162 47.300,223.948 47.168 C 223.735 47.036,223.532 46.552,223.497 46.092 C 223.462 45.632,223.291 45.344,223.117 45.451 C 222.845 45.620,222.716 45.026,222.834 44.145 C 222.853 44.004,222.714 43.779,222.525 43.645 C 221.918 43.212,220.800 41.248,220.800 40.614 C 220.800 40.276,220.620 40.000,220.400 40.000 C 220.180 40.000,220.000 39.651,220.000 39.224 C 220.000 38.797,219.817 38.334,219.593 38.196 C 219.370 38.058,219.291 37.777,219.417 37.572 C 219.544 37.368,219.457 37.200,219.224 37.200 C 218.991 37.200,218.800 36.930,218.800 36.600 C 218.800 36.270,218.665 35.999,218.500 35.999 C 218.146 35.997,216.573 32.350,216.719 31.870 C 216.775 31.689,216.644 31.649,216.430 31.781 C 216.216 31.914,215.921 31.387,215.776 30.611 C 215.630 29.835,215.351 29.200,215.155 29.200 C 214.960 29.200,214.800 28.859,214.800 28.443 C 214.800 28.026,214.530 27.582,214.200 27.455 C 213.870 27.329,213.600 26.859,213.600 26.413 C 213.600 25.966,213.420 25.600,213.200 25.600 C 212.980 25.600,212.800 25.299,212.800 24.931 C 212.800 24.564,212.485 23.903,212.100 23.463 C 211.715 23.023,211.608 22.784,211.863 22.932 C 212.212 23.135,212.213 22.963,211.867 22.230 C 211.615 21.695,211.342 21.325,211.261 21.406 C 211.179 21.487,210.582 20.439,209.933 19.077 C 209.284 17.715,207.864 14.870,206.777 12.756 C 205.689 10.641,204.800 8.616,204.800 8.256 C 204.800 7.895,204.609 7.600,204.376 7.600 C 204.143 7.600,204.056 7.432,204.183 7.228 C 204.309 7.023,204.212 6.731,203.966 6.579 C 203.476 6.276,202.206 3.582,202.326 3.100 C 202.367 2.935,202.220 2.800,202.000 2.800 C 201.780 2.800,201.600 2.440,201.600 2.000 C 201.600 1.560,201.420 1.200,201.200 1.200 C 200.980 1.200,200.800 0.930,200.800 0.600 C 200.800 0.267,200.444 0.000,200.000 0.000 C 199.556 0.000,199.200 0.267,199.200 0.600 " stroke="none" fill="#fcdc04" fill-rule="evenodd"></path></g></svg>